<?xml version="1.0" encoding="utf-8"?>
<!-- Generator: Adobe Illustrator 17.1.0, SVG Export Plug-In . SVG Version: 6.00 Build 0)  -->
<!DOCTYPE svg PUBLIC "-//W3C//DTD SVG 1.1//EN" "http://www.w3.org/Graphics/SVG/1.1/DTD/svg11.dtd">
<svg version="1.1" id="auction" xmlns="http://www.w3.org/2000/svg" xmlns:xlink="http://www.w3.org/1999/xlink" x="0px" y="0px"
	 viewBox="0 0 1010.0001 947.1973" enable-background="new 0 0 1010.0001 947.1973" xml:space="preserve">
<g>
	<g id="auction-auction">
		<g>
			<path fill="#5C524C" d="M363.7218,601.8586c-4.6983,0-9.397-1.794-12.9839-5.3809c-7.1729-7.1738-7.1729-18.7939,0-25.9678
				l298.229-298.2837c7.1738-7.1728,18.7959-7.1728,25.9678,0c7.1738,7.1739,7.1738,18.7945,0,25.9678l-298.229,298.2837
				C373.1188,600.0646,368.42,601.8586,363.7218,601.8586L363.7218,601.8586z"/>
		</g>
		<g>
			<path fill="#5C524C" d="M112.5134,947.1973L112.5134,947.1973c-4.8599,0-9.541-1.9365-12.9839-5.3788L5.3801,847.632
				c-7.1734-7.1728-7.1734-18.7939,0-25.9668l298.2656-298.248c3.4434-3.4434,8.1235-5.3799,12.9834-5.3799l0,0
				c4.8779,0,9.5405,1.9365,12.9839,5.3799l94.1675,94.1855c7.1733,7.1738,7.1733,18.794,0,25.9678l-298.2832,298.248
				C122.0534,945.2609,117.3907,947.1973,112.5134,947.1973L112.5134,947.1973z M44.3312,834.6495l68.1821,68.2168
				l272.3159-272.2803l-68.2002-68.2168L44.3312,834.6495L44.3312,834.6495z"/>
		</g>
		<g>
			<path fill="#5C524C" d="M110.3609,859.4689l-25.8061-26.1465l26.1294-25.8066l25.8056,26.1465L110.3609,859.4689
				L110.3609,859.4689z M162.6189,807.8566l-25.8062-26.1465l26.147-25.8066l25.8056,26.1465L162.6189,807.8566L162.6189,807.8566z
				 M214.8938,756.2443l-25.7876-26.1465l26.1289-25.7881l25.788,26.1475L214.8938,756.2443L214.8938,756.2443z M267.1696,704.6506
				l-25.8061-26.1465l26.1289-25.8057l25.8057,26.1465L267.1696,704.6506L267.1696,704.6506z M319.4449,653.0383l-25.8056-26.1465
				l26.1279-25.8057l25.8061,26.1465L319.4449,653.0383L319.4449,653.0383z M371.7028,601.4269l-25.8061-26.1465l4.9316-4.8603
				l25.8057,26.1474L371.7028,601.4269L371.7028,601.4269z"/>
		</g>
		<g>
			<path fill="#5C524C" d="M818.9757,460.5793c-4.8779,0-9.5401-1.9366-12.9844-5.3799L460.6158,109.8229
				c-3.4438-3.4433-5.3808-8.1235-5.3808-12.9839c0-4.8779,1.937-9.5405,5.3808-12.9834l62.8198-62.7666
				c6.3477-6.33,16.3545-7.1733,23.6523-1.9541c0.3419,0.2329,39.1318,27.2227,87.4248,27.2227
				c34.5039,0,65.7988-13.791,93.0029-40.9776c7.1719-7.1733,18.794-7.1733,25.9678,0l251.1357,251.1548
				c7.174,7.1734,7.174,18.7945,0,25.9678l-172.66,172.6968C828.5147,458.6427,823.8342,460.5793,818.9757,460.5793
				L818.9757,460.5793z M499.5847,96.839l319.3911,319.4092l146.6924-146.7295L739.9249,43.7751
				c-31.168,26.0927-66.5664,39.3091-105.4121,39.3091c-41.874,0-77.0576-15.7271-95.332-25.8238L499.5847,96.839L499.5847,96.839z"
				/>
		</g>
		<g>
			<path fill="#5C524C" d="M991.6358,939.6301H485.5421c-10.1318,0-18.3628-8.2139-18.3628-18.3633
				c0-10.1505,8.231-18.3643,18.3628-18.3643h506.0937c10.1329,0,18.3643,8.2139,18.3643,18.3643
				C1010.0001,931.4161,1001.7687,939.6301,991.6358,939.6301L991.6358,939.6301z"/>
		</g>
		<g>
			<path fill="#5C524C" d="M933.2462,848.2969h-389.332c-10.1485,0-18.3643-8.2138-18.3643-18.3642
				c0-10.1514,8.2158-18.3652,18.3643-18.3652h389.332c10.1309,0,18.3623,8.2138,18.3623,18.3652
				C951.6085,840.0831,943.3771,848.2969,933.2462,848.2969L933.2462,848.2969z"/>
		</g>
	</g>
</g>
</svg>
