<?xml version="1.0" encoding="utf-8"?>
<!-- Generator: Adobe Illustrator 17.1.0, SVG Export Plug-In . SVG Version: 6.00 Build 0)  -->
<!DOCTYPE svg PUBLIC "-//W3C//DTD SVG 1.1//EN" "http://www.w3.org/Graphics/SVG/1.1/DTD/svg11.dtd">
<svg version="1.1" id="buy-now" xmlns="http://www.w3.org/2000/svg" xmlns:xlink="http://www.w3.org/1999/xlink" x="0px" y="0px"
	 viewBox="0 0 1010 890.1426" enable-background="new 0 0 1010 890.1426" xml:space="preserve">
<g>
	<g id="buy-now-buy-now">
		<g>
			<path fill="#5C524C" d="M954.9277,661.0645H767.4346c-10.1328,0-18.3643-8.2139-18.3643-18.3643
				c0-10.1328,8.2314-18.3633,18.3643-18.3633h187.4931c10.1123,0,18.3457-8.2314,18.3457-18.3633V55.0728
				c0-10.1138-8.2334-18.3457-18.3457-18.3457H55.1089c-10.1318,0-18.3818,8.2319-18.3818,18.3457v550.9008
				c0,10.1319,8.25,18.3633,18.3818,18.3633h296.4365c10.1499,0,18.3638,8.2305,18.3638,18.3633
				c0,10.1504-8.2139,18.3643-18.3638,18.3643H55.1089C24.7119,661.0645,0,636.3525,0,605.9736V55.0728
				C0,24.7031,24.7119,0,55.1089,0h899.8188C985.3066,0,1010,24.7031,1010,55.0728v550.9008
				C1010,636.3525,985.3066,661.0645,954.9277,661.0645L954.9277,661.0645z"/>
		</g>
		<g>
			<path fill="#5C524C" d="M275.2393,190.4863c50.5722,0,81.9731,23.0181,81.9731,61.0362
				c0,27.5639-16.4092,48.1416-42.9145,54.4272c32.7998,5.5777,52.3295,28.9531,52.3295,61.7446
				c0,41.8648-33.8403,66.9805-88.9492,66.9805H169.1821V190.4863H275.2393z M210.3384,291.6397h62.8027
				c26.1465,0,41.8565-12.2037,41.8565-32.7915c0-20.5689-15.71-31.733-41.8565-31.733h-62.8027V291.6397z M210.3384,398.0459
				h62.8027c32.0825,0,51.2715-12.562,51.2715-35.5884c0-21.6269-19.189-34.5302-51.2715-34.5302h-62.8027V398.0459z"/>
			<path fill="#5C524C" d="M623.0732,333.5039c0,63.8423-40.1171,102.9195-106.0586,102.9195
				c-65.9218,0-106.3974-39.0772-106.3974-102.9195V190.4863h41.1753v143.0176c0,41.1665,25.4648,65.9321,65.5815,65.9321
				c39.7578,0,64.5225-24.416,64.5225-65.9321V190.4863h41.1767V333.5039z"/>
			<path fill="#5C524C" d="M782.1934,434.6748H741.377v-79.8926l-91.0645-164.2959h41.5156l69.7783,118.9517l68.379-118.9517
				h41.8574l-89.6494,162.9063V434.6748z"/>
		</g>
		<g>
			<path fill="#5C524C" d="M608.2773,890.1426c-51.0742,0-117.3374-24.4961-175.8173-46.1065
				c-32.6026-12.0683-63.4121-23.4384-82.8877-26.9531c-31.9204-5.7207-50.3921-25.5908-50.6968-54.499
				c-0.1797-15.5654,5.8642-30.7197,16.5879-41.5518c10.3652-10.5088,24.1562-16.2822,38.8437-16.2822l40.5113,1.3984
				L247.5508,558.8799c-22.8111-22.8281-23.5821-57.8164-1.7397-79.6953c21.2871-21.3047,57.2964-20.5869,79.211,1.3271
				l76.5752,76.5576c2.6538-5.5058,6.2944-10.6347,10.832-15.1543c15.0098-15.0273,38.0898-19.6542,57.7085-12.4267
				c2.6182-7.5508,6.9404-14.6162,13.0195-20.6963c15.2432-15.2607,38.6631-19.7256,58.4444-12.1396
				c2.6172-7.4249,6.9229-14.419,12.9121-20.4082c21.2334-21.251,57.6181-20.292,79.6601,1.7744L737.541,581.4043
				c66.8184,66.7832,40.3495,162.1172,17.0186,203.1836c-0.8272,1.4346-1.8311,2.7617-2.9961,3.9092l-79.7129,79.6963
				C657.2881,882.7549,635.9111,890.1426,608.2773,890.1426L608.2773,890.1426z M354.0918,741.4756
				c-5.9355,0-10.0962,2.9238-12.5176,5.3623c-3.8559,3.9102-6.0429,9.5059-5.9712,15.334
				c0.0537,5.3076,0.1616,15.1348,20.4615,18.7578c22.6855,4.0889,53.477,15.4766,89.1279,28.6572
				c52.8315,19.5294,118.5937,43.8291,163.0849,43.8291c17.5381,0,30.1827-3.7666,37.6055-11.1904l77.8135-77.7939
				c7.5127-14.3829,47.0732-97.8809-12.1231-157.042L608.1875,503.9678c-4.3926-4.375-10.043-6.9033-15.4932-6.9033
				c-3.2109,0-7.9453,0.8964-12.2129,5.1474c-7.6396,7.6387-7.0654,18.9004,1.3624,27.3662
				c7.1552,7.1729,7.1552,18.794-0.0186,25.9493c-7.1553,7.1552-18.7939,7.1552-25.9658-0.0186l-19.0108-19.0098
				c-4.3925-4.375-10.0429-6.8867-15.5107-6.8867c-3.2295,0-7.9453,0.8985-12.2129,5.1475
				c-7.6221,7.622-7.1021,18.8476,1.2715,27.2578c0.1269,0.126,0.2519,0.2705,0.3945,0.4131l0,0c0,0,0.0186,0.0185,0.0371,0.0361
				l0,0c0.0186,0,0.0352,0.0547,0.0352,0.0361c0.0185,0.0186,0.0185,0.0352,0.0371,0.0352v0.0186
				c0.0176,0.0175,0.0361,0.0175,0.0361,0.0361c0,0.0176,0.0166,0.0176,0.0352,0.0351c0.0371,0.0176,0.0527,0.0547,0.0527,0.0547
				c0,0.0176,0.0186,0.0176,0.0371,0.0352c0,0.0176,0.0186,0.0361,0.0342,0.0361c0.0186,0,0.0186,0.0361,0.0371,0.0536
				c0,0,0-0.0176,0.0371,0.0352c0,0.0185,0.0166,0.0185,0.0166,0.0185s0.0186,0.0362,0.0362,0.0547
				c0.0185,0,0.0351,0.0165,0.0351,0.0528c0.0186,0,0.0186,0.0361,0.0557,0.0361c-0.0186,0,0.0156,0.0351,0.0342,0.0351
				c0.0371,0.0362,0.0371,0.0547,0.0371,0.0547c0.0341,0.0176,0.0185,0.0362,0.0341,0.0547h0.0186l0.0186,0.0342h0.0185
				c0,0.0186,0.0166,0.0371,0.0166,0.0371l0.0186,0.0166c0.0175,0,0.0361,0.0547,0.0361,0.0547s0.0166,0.0176,0.0352,0.0361l0,0
				c0,0,0.0185,0.0352,0.0371,0.0352l0,0c0.0185,0.0185,0.0185,0.0361,0.0341,0.0361v0.0176
				c0.0186,0.0186,0.0186,0.0186,0.0372,0.0371v0.0166c0.0185,0,0.0185,0.0186,0.0341,0.0361l0,0
				c0.0371,0.0186,0.0371,0.0352,0.0371,0.0352c1.667,2.0996,2.8164,4.4658,3.4444,6.9414l0,0c0,0.0176,0,0.0361,0,0.0537l0,0
				c0.0156,0.0176,0.0156,0.0352,0.0156,0.0536l0,0c0,0.0186,0.0186,0.0352,0.0186,0.0529l0,0c0,0.0185,0,0.037,0.0185,0.0547l0,0
				c0,0.0185,0,0.0351,0,0.0537l0,0c0,0.0185,0.0186,0.0361,0.0186,0.0536l0,0c0,0.0185,0,0.0361,0.0156,0.0537l0,0
				c0,0.0176,0,0.0361,0,0.0547l0,0c0.0185,0.0166,0.0185,0.0351,0.0185,0.0527l0,0c0,0.0186,0,0.0371,0.0186,0.0547
				c0,0,0,0.0166,0,0.0537c0,0,0,0.0352,0.0186,0.0537v0.0176c0,0,0,0.0176,0.0185,0.0361l0,0c0,0.0363,0,0.0363,0,0.0547v0.0166
				c0.0166,0,0.0166,0.0176,0.0166,0.0361l0,0c0,0.0362,0,0.0362,0.0186,0.0528v0.0185c0,0.0186,0,0.0362,0,0.0362
				c0,0.0361,0.0175,0.0722,0.0175,0.0722c0,0.0352,0,0.0352,0,0.0352c0.0186,0.0371,0,0.0537,0.0186,0.0713
				c0.0166,0.0371,0.0166,0.0371,0.0166,0.0547c0,0,0.0186,0.0537,0,0.0537c0.0186,0,0.0186,0.0361,0.0186,0.0537s0,0.0176,0,0.0537
				c0,0,0.0185,0,0.0185,0.0361c0,0,0,0.0352,0,0.0714l0,0c0,0.0186,0.0186,0.037,0.0186,0.037v0.0176c0,0.0166,0,0.0166,0,0.0537
				l0,0c0,0.0176,0.0156,0.0352,0.0156,0.0352v0.0176c0,0.0185,0,0.0185,0,0.0546l0.0185,0.0362c0,0.0351,0,0.0351,0,0.0713
				l0.0186,0.0361c0,0.0352-0.0186,0.0352,0,0.0713l0,0c0,0.0351,0,0.0723,0.0186,0.0723c-0.0186,0.0351,0.0185,0.0351,0,0.0351
				c0,0.0371,0,0.0371,0,0.0537c0-0.0166,0.0185,0.0176,0.0185,0.0547c0,0,0,0.0176,0,0.0527c0,0,0.0156,0.0186,0.0156,0.0547
				c0,0.0166-0.0156,0.0352,0,0.0537c0,0.0176,0,0.0352,0,0.0538c0,0.0351,0.0186,0.0351,0.0186,0.0537c0,0.0175,0,0.0175,0,0.0175
				c0,0.0372,0,0.0372,0,0.0713c0,0.0186,0.0185,0.0186,0.0185,0.0371c0,0.0342,0,0.0342,0,0.0713c0,0,0,0,0,0.0363
				c0,0,0,0,0,0.0361c0.0352,0.0176,0,0.0352,0.0186,0.0713v0.0351c0,0.0362,0,0.0362,0,0.0723l0.0166,0.0352
				c0,0.037,0,0.037,0,0.0721c0.0186,0,0,0.0363,0,0.0363c0,0.0351,0,0.0351,0.0186,0.0722c0,0,0,0.0352,0,0.0528
				c0,0.0185-0.0186,0.037,0,0.0546c0,0.0166,0,0.0352,0,0.0538c0,0.0175,0,0.0361,0,0.0536
				c0.0175,0.0175,0.0175,0.0352,0.0175,0.0537c0,0.0176,0,0.0361,0,0.0547c0,0.0166,0,0.0166,0,0.0527c0,0.0361,0,0.0547,0,0.0547
				c0,0.0351,0,0.0351,0,0.0713c0.0186,0,0.0186,0.0351,0.0186,0.0351c0,0.0362,0,0.0362,0,0.0723v0.0352
				c0,0.0361,0,0.0361,0,0.0722v0.0352c0,0.0371,0,0.0547,0,0.0722c0,0.0176,0.0166,0.0362,0.0166,0.0538
				c0,0.0185,0,0.0361,0,0.0546c0,0,0,0.0166,0,0.0352c0,0,0,0.0176,0,0.0547c0,0.0176,0,0.0342,0,0.0527
				c-0.0166,0.0362-0.0166,0.0362,0,0.0547c0,0.0166,0,0.0166,0,0.0166c0,0.0361,0,0.0361,0,0.0723c0,0,0,0,0,0.0371
				c0,0,0,0,0,0.0342c0,0,0,0.037,0,0.0721v0.0363c0,0.0361,0,0.0527,0,0.0713l0,0c0,0.0361,0,0.0361,0,0.0537v0.0185
				c0,0,0,0.0186,0,0.0352c0,0,0,0.0185,0,0.0547c0,0,0,0.0351,0,0.0527c0,0.0186,0,0.0371,0,0.0547c0,0.0166,0,0.0166,0,0.0537
				v0.0176c0,0.0185,0,0.0185,0,0.0547l0,0c0,0.0166,0,0.0351,0,0.0351v0.0176c0,0.0371,0,0.0537,0,0.0537
				c0,0.0361,0,0.0361,0,0.0723c0,0,0,0.0186,0,0.0351c0,0,0,0.0186,0,0.0547v0.0176c0,0,0,0.0185,0,0.0361l0,0
				c0,0.0352,0,0.0352,0,0.0536v0.0186c-0.0166,0.0351-0.0166,0.0351-0.0166,0.0351c0,0.0362,0,0.0723,0,0.0723v0.0352
				c0,0,0,0.0361,0,0.0722c-0.0361-0.0361,0,0,0,0.0352v0.0185c0,0.0176,0,0.0362,0,0.0528l0,0
				c-0.0186,0.0361-0.0186,0.0547-0.0186,0.0547c0,0.0186,0,0.0361,0,0.0527l0,0c0,0.0186,0,0.0371,0,0.0547c0,0,0,0.0185,0,0.0537
				c0,0,0,0.0176,0,0.0537v0.0186c0,0.0186,0,0.0714-0.0175,0.0352c0,0.0362,0,0.0723,0,0.0723v0.0351l0,0
				c0,0.0362,0,0.0362,0,0.0723l0,0v0.0361l0,0c-0.0186,0.0352-0.0186,0.0352-0.0186,0.0723l0,0c0,0-0.0166,0.0713,0,0.0527
				c0,0.0186,0,0.0362,0,0.0547l0,0c0,0.0166-0.0166,0.0352-0.0166,0.0537l0,0c-0.3945,4.0879-2.1533,8.0508-5.2744,11.1719
				c-1.0752,1.0938-2.2569,2.0078-3.5127,2.7617c-1.6328,0.9873-3.3721,1.6866-5.1655,2.1153l0,0l0,0
				c-5.9898,1.4707-12.5352-0.1426-17.2159-4.8242l-18.436-18.4512c-4.3574-4.377-9.9883-6.8877-15.4394-6.8877
				c-3.2286,0-7.9624,0.8974-12.2491,5.2012c-3.6582,3.6396-5.5053,8.1054-5.3437,12.9482
				c0.1606,5.0918,2.5283,10.1494,6.6352,14.2734c0.0362,0.0362,0.0533,0.0362,0.0362,0.0362
				c0.0356,0.0186,0.0171,0.0361,0.0532,0.0547c0.0181,0.0175,0.0181,0.0175,0.0361,0.0527l0.0357,0.0371c0.018,0,0.018,0,0.018,0
				c0.0181,0.0352,0.0357,0.0352,0.0542,0.0527c0,0.0186,0.0357,0.0186,0.0357,0.0547c0,0,0.0171,0.0352,0.0356,0.0352
				c0.0181,0,0.0181,0,0.0362,0.0361c0,0,0.0175,0,0.0356,0.0361l0,0c0.0176,0.0352,0.0356,0.0352,0.0542,0.0352
				c0,0.0186,0.0171,0.0361,0.0356,0.0361v0.0186c0,0.0176,0.0176,0.0176,0.0357,0.0351l0,0
				c0.0176,0.0176,0.0176,0.0176,0.0361,0.0547l0,0c0.0176,0,0.0357,0.0176,0.0357,0.0342l0,0
				c6.5991,7.21,6.4204,18.418-0.5376,25.3945c-6.9585,6.958-18.0772,7.1729-25.2862,0.6455l0,0
				c-0.0361-0.0175-0.0537-0.0722-0.0537-0.0361c0-0.0176-0.0361-0.0361-0.0361-0.0361c-0.0181,0-0.0357-0.0352-0.0357-0.0352
				h-0.0185c-0.0171-0.0361,0-0.0361-0.0357-0.0361c-0.018-0.0361,0,0-0.0537-0.0527c0-0.0186-0.018-0.0186-0.018-0.0186
				c-0.0176,0-0.0176-0.0361-0.0357-0.0361c-0.0356-0.0362-0.0356-0.0362-0.0542-0.0536c0,0-0.0171,0-0.0356-0.0363
				c0-0.0175-0.0357-0.0361-0.0357-0.0361c-0.018-0.0186-0.018-0.0186-0.0537-0.0527c0,0-0.018,0-0.018-0.0186l-0.0181-0.0185
				c-0.0176,0-0.0361-0.0176-0.0361-0.0362c0-0.0166-0.0176-0.0352-0.0533-0.0352l-0.0185-0.0362
				c-0.0171,0-0.0357-0.0351-0.0357-0.0351L299.0542,506.4795c-8.0156-8.0352-19.7803-8.8057-27.2764-1.3271
				c-8.5175,8.5361-5.5766,20.4257,1.7398,27.7607l180.1928,180.1924c5.3448,5.3447,6.8687,13.3974,3.856,20.3008
				c-2.9951,6.9228-9.4683,11.5497-17.4663,11.0478L354.0918,741.4756L354.0918,741.4756z"/>
		</g>
	</g>
</g>
</svg>
