<?xml version="1.0" encoding="utf-8"?>
<!-- Generator: Adobe Illustrator 17.1.0, SVG Export Plug-In . SVG Version: 6.00 Build 0)  -->
<!DOCTYPE svg PUBLIC "-//W3C//DTD SVG 1.1//EN" "http://www.w3.org/Graphics/SVG/1.1/DTD/svg11.dtd">
<svg version="1.1" id="cash-register" xmlns="http://www.w3.org/2000/svg" xmlns:xlink="http://www.w3.org/1999/xlink" x="0px"
	 y="0px" viewBox="0 0 1010 959.6426" enable-background="new 0 0 1010 959.6426" xml:space="preserve">
<g>
	<g id="cash-register-cash-register">
		<g>
			<path fill="#5C524C" d="M924.5303,187.7427H488.2231c-10.1411,0-18.3627-8.2134-18.3627-18.3638V18.3633
				C469.8604,8.2129,478.082,0,488.2231,0h436.3072c10.1494,0,18.3623,8.2129,18.3623,18.3633v151.0156
				C942.8926,179.5293,934.6797,187.7427,924.5303,187.7427L924.5303,187.7427z M506.5859,151.0151H906.166V36.7271H506.5859
				V151.0151L506.5859,151.0151z"/>
		</g>
		<g>
			<g>
				<polygon fill="#5C524C" points="836.7646,113.4097 779.377,113.4097 779.377,76.6821 836.7646,76.6821 836.7646,113.4097 				
					"/>
			</g>
			<g>
				<polygon fill="#5C524C" points="721.9922,113.4097 561.3096,113.4097 561.3096,76.6821 721.9922,76.6821 721.9922,113.4097 				
					"/>
			</g>
		</g>
		<g>
			<path fill="#5C524C" d="M991.6357,959.6426H18.3643C8.2227,959.6426,0,951.4297,0,941.2793V823.8174
				c0-10.1504,8.2227-18.3643,18.3643-18.3643h973.2714c10.1514,0,18.3643,8.2139,18.3643,18.3643v117.4619
				C1010,951.4297,1001.7871,959.6426,991.6357,959.6426L991.6357,959.6426z M36.7271,922.9151h936.5463v-80.7344H36.7271V922.9151
				L36.7271,922.9151z"/>
		</g>
		<g>
			<path fill="#5C524C" d="M238.8442,632.4336h-67.1064c-10.1411,0-18.3643-8.2139-18.3643-18.3643v-67.123
				c0-10.1514,8.2232-18.3643,18.3643-18.3643h67.1064c10.1412,0,18.3628,8.2129,18.3628,18.3643v67.123
				C257.207,624.2197,248.9854,632.4336,238.8442,632.4336L238.8442,632.4336z M190.1011,595.7061h30.3794v-30.3975h-30.3794
				V595.7061L190.1011,595.7061z"/>
		</g>
		<g>
			<path fill="#5C524C" d="M406.6816,632.4336h-67.1699c-10.1411,0-18.3628-8.2139-18.3628-18.3643v-67.123
				c0-10.1514,8.2217-18.3643,18.3628-18.3643h67.1699c10.1412,0,18.3628,8.2129,18.3628,18.3643v67.123
				C425.0444,624.2197,416.8228,632.4336,406.6816,632.4336L406.6816,632.4336z M357.8755,595.7061h30.4419v-30.3975h-30.4419
				V595.7061L357.8755,595.7061z"/>
		</g>
		<g>
			<path fill="#5C524C" d="M574.4551,632.4336h-67.1143c-10.1421,0-18.3637-8.2139-18.3637-18.3643v-67.123
				c0-10.1514,8.2216-18.3643,18.3637-18.3643h67.1143c10.1328,0,18.3642,8.2129,18.3642,18.3643v67.123
				C592.8193,624.2197,584.5879,632.4336,574.4551,632.4336L574.4551,632.4336z M525.6953,595.7061h30.3975v-30.3975h-30.3975
				V595.7061L525.6953,595.7061z"/>
		</g>
		<g>
			<path fill="#5C524C" d="M238.8442,766.6631h-67.1064c-10.1411,0-18.3643-8.2129-18.3643-18.3633v-67.088
				c0-10.1512,8.2232-18.3642,18.3643-18.3642h67.1064c10.1412,0,18.3628,8.213,18.3628,18.3642v67.088
				C257.207,758.4502,248.9854,766.6631,238.8442,766.6631L238.8442,766.6631z M190.1011,729.9365h30.3794v-30.3613h-30.3794
				V729.9365L190.1011,729.9365z"/>
		</g>
		<g>
			<path fill="#5C524C" d="M406.6816,766.6631h-67.1699c-10.1411,0-18.3628-8.2129-18.3628-18.3633v-67.088
				c0-10.1512,8.2217-18.3642,18.3628-18.3642h67.1699c10.1412,0,18.3628,8.213,18.3628,18.3642v67.088
				C425.0444,758.4502,416.8228,766.6631,406.6816,766.6631L406.6816,766.6631z M357.8755,729.9365h30.4419v-30.3613h-30.4419
				V729.9365L357.8755,729.9365z"/>
		</g>
		<g>
			<path fill="#5C524C" d="M574.4551,766.6631h-67.1143c-10.1421,0-18.3637-8.2129-18.3637-18.3633v-67.088
				c0-10.1512,8.2216-18.3642,18.3637-18.3642h67.1143c10.1328,0,18.3642,8.213,18.3642,18.3642v67.088
				C592.8193,758.4502,584.5879,766.6631,574.4551,766.6631L574.4551,766.6631z M525.6953,729.9365h30.3975v-30.3613h-30.3975
				V729.9365L525.6953,729.9365z"/>
		</g>
		<g>
			<path fill="#5C524C" d="M842.9346,766.6631H675.1855c-10.1484,0-18.3642-8.2129-18.3642-18.3633v-67.088
				c0-10.1512,8.2158-18.3642,18.3642-18.3642h167.7491c10.1494,0,18.3623,8.213,18.3623,18.3642v67.088
				C861.2969,758.4502,853.084,766.6631,842.9346,766.6631L842.9346,766.6631z M693.5508,729.9365h131.0195v-30.3613H693.5508
				V729.9365L693.5508,729.9365z"/>
		</g>
		<g>
			<path fill="#5C524C" d="M842.9346,632.4336H675.1855c-10.1484,0-18.3642-8.2139-18.3642-18.3643v-67.123
				c0-10.1514,8.2158-18.3643,18.3642-18.3643h167.7491c10.1494,0,18.3623,8.2129,18.3623,18.3643v67.123
				C861.2969,624.2197,853.084,632.4336,842.9346,632.4336L842.9346,632.4336z M693.5508,595.7061h131.0195v-30.3975H693.5508
				V595.7061L693.5508,595.7061z"/>
		</g>
		<g>
			<path fill="#5C524C" d="M842.9346,464.6143H507.3408c-10.1421,0-18.3637-8.2134-18.3637-18.3638V345.5733
				c0-10.1504,8.2216-18.3638,18.3637-18.3638h335.5938c10.1494,0,18.3623,8.2134,18.3623,18.3638v100.6772
				C861.2969,456.4009,853.084,464.6143,842.9346,464.6143L842.9346,464.6143z M525.6953,427.8867h298.875v-63.9502h-298.875
				V427.8867L525.6953,427.8867z"/>
		</g>
		<g>
			<path fill="#5C524C" d="M434.5581,466.1738H139.1084c-10.1411,0-18.3638-8.2133-18.3638-18.3632V271.2759h36.7276v158.1714
				h258.7226V271.2759h36.7276v176.5347C452.9224,457.9605,444.6992,466.1738,434.5581,466.1738L434.5581,466.1738z"/>
		</g>
		<g>
			<path fill="#5C524C" d="M958.0645,833.8047c-10.1495,0-18.3643-8.2129-18.3643-18.3633v-518.647H410.187
				c-10.1411,0-18.3638-8.2128-18.3638-18.3627c0-10.1504,8.2227-18.3643,18.3638-18.3643h547.8774
				c10.1513,0,18.3643,8.2139,18.3643,18.3643v537.0097C976.4287,825.5918,968.2158,833.8047,958.0645,833.8047L958.0645,833.8047z"
				/>
		</g>
		<g>
			<path fill="#5C524C" d="M51.9438,833.8047c-10.1416,0-18.3637-8.2129-18.3637-18.3633V278.4317
				c0-10.1504,8.2221-18.3643,18.3637-18.3643h111.6163c10.1411,0,18.3637,8.2139,18.3637,18.3643
				c0,10.1499-8.2226,18.3627-18.3637,18.3627h-93.253v518.647C70.3071,825.5918,62.085,833.8047,51.9438,833.8047L51.9438,833.8047
				z"/>
		</g>
		<g>
			<path fill="#5C524C" d="M699.0371,296.7944c-10.1494,0-18.3642-8.2128-18.3642-18.3627V177.7715
				c0-10.1494,8.2148-18.3633,18.3642-18.3633c10.1514,0,18.3643,8.2139,18.3643,18.3633v100.6602
				C717.4014,288.5816,709.1885,296.7944,699.0371,296.7944L699.0371,296.7944z"/>
		</g>
		<g>
			<polygon fill="#5C524C" points="555.375,900.9121 454.6616,900.9121 454.6616,864.1846 555.375,864.1846 555.375,900.9121 			"/>
		</g>
		<g>
			<path fill="#5C524C" d="M391.7876,402.9414H181.9238c-9.1279,0-16.5254-7.4062-16.5254-16.5342V86.5816
				c0-6.689,4.0254-12.7149,10.2037-15.2613c6.1694-2.6006,13.2709-1.1479,18.0146,3.5684l10.4995,10.5273l6.5278-8.7339
				c2.8697-3.8374,7.2627-6.2407,12.0513-6.5815c4.7256-0.4658,9.4688,1.3989,12.8667,4.7881l10.5449,10.5449l6.5815-8.7695
				c2.8696-3.8374,7.272-6.2407,12.0513-6.5635c4.9043-0.4658,9.4775,1.417,12.8667,4.8066l10.4737,10.4908l6.5273-8.7159
				c2.8784-3.8374,7.272-6.2407,12.0601-6.5815c4.7256-0.4658,9.4687,1.3989,12.8667,4.8066l10.5093,10.5088l6.5542-8.7519
				c3.1206-4.1602,8.0166-6.6172,13.226-6.6172l0,0c5.21,0,10.1143,2.457,13.2344,6.6352l6.5371,8.7339l10.5-10.5088
				c4.7344-4.7529,11.8628-6.1338,18.0137-3.6049c6.1777,2.5644,10.2046,8.5903,10.2046,15.2793v299.8256
				C408.3135,395.5352,400.9155,402.9414,391.7876,402.9414L391.7876,402.9414z M198.4487,369.8726h176.813V125.335
				c-2.645,1.3452-5.6758,2.0268-8.6435,1.7402c-4.7881-0.3413-9.1817-2.7441-12.0601-6.582l-4.7436-6.3306l-4.7525,6.3482
				c-2.8691,3.8203-7.2715,6.2231-12.0508,6.5644c-4.8955,0.376-9.4868-1.4175-12.8672-4.8066l-10.4995-10.5088l-6.5371,8.7334
				c-2.8779,3.8379-7.2807,6.2407-12.0595,6.582c-4.9053,0.4658-9.4869-1.3994-12.876-4.8066l-10.4912-10.5088l-6.5723,8.751
				c-2.8691,3.8378-7.2725,6.2231-12.0425,6.5644c-4.9497,0.376-9.4687-1.4175-12.8579-4.7886l-10.5185-10.5268l-6.5279,8.7334
				c-2.8691,3.8379-7.2715,6.2407-12.0503,6.582c-3.0395,0.2686-6.0171-0.4131-8.6626-1.7402V369.8726L198.4487,369.8726z"/>
		</g>
	</g>
</g>
</svg>
