<?xml version="1.0" encoding="utf-8"?>
<!-- Generator: Adobe Illustrator 17.1.0, SVG Export Plug-In . SVG Version: 6.00 Build 0)  -->
<!DOCTYPE svg PUBLIC "-//W3C//DTD SVG 1.1//EN" "http://www.w3.org/Graphics/SVG/1.1/DTD/svg11.dtd">
<svg version="1.1" id="coins" xmlns="http://www.w3.org/2000/svg" xmlns:xlink="http://www.w3.org/1999/xlink" x="0px" y="0px"
	 viewBox="0 0 1010.0005 1010" enable-background="new 0 0 1010.0005 1010" xml:space="preserve">
<g>
	<g id="coins-coins">
		<g>
			<g>
				<path fill="#5C524C" d="M505.0005,1010C226.5474,1010,0,912.1074,0,791.7959v-233c0-11.6299,9.4116-21.042,21.0425-21.042
					c11.6094,0,21.041,9.4121,21.041,21.042v233c0,83.1396,197.9644,176.1201,462.917,176.1201
					c264.9531,0,462.918-92.9805,462.918-176.1201v-233c0-11.6299,9.4316-21.042,21.04-21.042
					c11.6318,0,21.042,9.4121,21.042,21.042v233C1010.0005,912.1074,783.4536,1010,505.0005,1010L505.0005,1010z"/>
			</g>
			<g>
				<path fill="#5C524C" d="M505.0005,776.9805C221.8218,776.9805,0,685.0664,0,567.7148c0-28.6454,12.5142-56.0156,37.1934-81.3525
					c8.0957-8.3423,21.4321-8.4863,29.7544-0.3696c8.3217,8.0962,8.4858,21.4116,0.3901,29.7544
					c-16.7676,17.1982-25.2544,34.6865-25.2544,51.9677c0,79.0704,190.1148,167.1827,462.917,167.1827
					c272.8008,0,462.918-88.1123,462.918-167.1827c0-17.2812-8.5294-34.789-25.338-52.0087
					c-8.1172-8.3018-7.9531-21.6377,0.3701-29.7544c8.3418-8.0757,21.6377-7.9727,29.7549,0.3696
					c24.7607,25.3574,37.2949,52.7275,37.2949,81.3935C1010.0005,685.0664,788.1792,776.9805,505.0005,776.9805L505.0005,776.9805z"
					/>
			</g>
			<g>
				<path fill="#5C524C" d="M110.6538,920.3672c-11.6094,0-21.041-9.4102-21.041-21.041V684.2441
					c0-11.6289,9.4316-21.041,21.041-21.041c11.6309,0,21.042,9.412,21.042,21.041v215.0821
					C131.6958,910.957,122.2847,920.3672,110.6538,920.3672L110.6538,920.3672z"/>
			</g>
			<g>
				<path fill="#5C524C" d="M182.3477,956.2461c-11.6094,0-21.0415-9.4121-21.0415-21.043V720.082
					c0-11.6308,9.4321-21.0428,21.0415-21.0428c11.6308,0,21.0415,9.412,21.0415,21.0428v215.1212
					C203.3892,946.834,193.9785,956.2461,182.3477,956.2461L182.3477,956.2461z"/>
			</g>
			<g>
				<path fill="#5C524C" d="M254.0615,974.123c-11.6298,0-21.041-9.4121-21.041-21.0429V738.0205
					c0-11.6309,9.4112-21.042,21.041-21.042c11.6104,0,21.0425,9.4111,21.0425,21.042v215.0596
					C275.104,964.7109,265.6719,974.123,254.0615,974.123L254.0615,974.123z"/>
			</g>
			<g>
				<path fill="#5C524C" d="M325.7559,992.0615c-11.6309,0-21.0415-9.4121-21.0415-21.041v-215.082
					c0-11.6299,9.4106-21.041,21.0415-21.041c11.6098,0,21.0415,9.4111,21.0415,21.041v215.082
					C346.7974,982.6494,337.3657,992.0615,325.7559,992.0615L325.7559,992.0615z"/>
			</g>
			<g>
				<path fill="#5C524C" d="M397.4292,992.0615c-11.6103,0-21.042-9.4121-21.042-21.041v-215.082
					c0-11.6299,9.4317-21.041,21.042-21.041c11.6299,0,21.042,9.4111,21.042,21.041v215.082
					C418.4712,982.6494,409.0591,992.0615,397.4292,992.0615L397.4292,992.0615z"/>
			</g>
			<g>
				<path fill="#5C524C" d="M469.1636,1010c-11.6304,0-21.041-9.4102-21.041-21.041V755.9385c0-11.6299,9.4106-21.041,21.041-21.041
					c11.6103,0,21.0425,9.4111,21.0425,21.041V988.959C490.2061,1000.5898,480.7739,1010,469.1636,1010L469.1636,1010z"/>
			</g>
			<g>
				<path fill="#5C524C" d="M540.8355,1010c-11.6084,0-21.0401-9.4102-21.0401-21.041V755.9385
					c0-11.6299,9.4317-21.041,21.0401-21.041c11.6318,0,21.0429,9.4111,21.0429,21.041V988.959
					C561.8784,1000.5898,552.4673,1010,540.8355,1010L540.8355,1010z"/>
			</g>
			<g>
				<path fill="#5C524C" d="M612.5112,992.0615c-11.6113,0-21.0429-9.4121-21.0429-21.041v-215.082
					c0-11.6299,9.4316-21.041,21.0429-21.041c11.6289,0,21.0401,9.4111,21.0401,21.041v215.082
					C633.5513,982.6494,624.1401,992.0615,612.5112,992.0615L612.5112,992.0615z"/>
			</g>
			<g>
				<path fill="#5C524C" d="M684.2232,992.0615c-11.6075,0-21.0391-9.4121-21.0391-21.041v-215.082
					c0-11.6299,9.4316-21.041,21.0391-21.041c11.6328,0,21.0429,9.4111,21.0429,21.041v215.082
					C705.2661,982.6494,695.856,992.0615,684.2232,992.0615L684.2232,992.0615z"/>
			</g>
			<g>
				<path fill="#5C524C" d="M755.939,974.123c-11.6114,0-21.043-9.4121-21.043-21.0429V738.0205
					c0-11.6309,9.4316-21.042,21.043-21.042c11.6289,0,21.042,9.4111,21.042,21.042v215.0596
					C776.981,964.7109,767.5679,974.123,755.939,974.123L755.939,974.123z"/>
			</g>
			<g>
				<path fill="#5C524C" d="M827.6118,956.2461c-11.6113,0-21.0428-9.4121-21.0428-21.043V720.082
					c0-11.6308,9.4316-21.0428,21.0428-21.0428c11.6289,0,21.0421,9.412,21.0421,21.0428v215.1212
					C848.6538,946.834,839.2407,956.2461,827.6118,956.2461L827.6118,956.2461z"/>
			</g>
			<g>
				<path fill="#5C524C" d="M899.3667,920.3672c-11.6084,0-21.04-9.4102-21.04-21.041V684.2441
					c0-11.6289,9.4316-21.041,21.04-21.041c11.6318,0,21.042,9.412,21.042,21.041v215.0821
					C920.4087,910.957,910.9985,920.3672,899.3667,920.3672L899.3667,920.3672z"/>
			</g>
		</g>
		<g>
			<g>
				<path fill="#5C524C" d="M505.0005,651.5117C226.5474,651.5117,0,553.6387,0,433.3271V200.3066
					c0-11.6298,9.4116-21.042,21.0425-21.042c11.6094,0,21.041,9.4122,21.041,21.042v233.0205
					c0,83.1182,197.9644,176.1006,462.917,176.1006c264.9531,0,462.918-92.9824,462.918-176.1006V200.3066
					c0-11.6298,9.4316-21.042,21.04-21.042c11.6318,0,21.042,9.4122,21.042,21.042v233.0205
					C1010.0005,553.6387,783.4536,651.5117,505.0005,651.5117L505.0005,651.5117z"/>
			</g>
			<g>
				<path fill="#5C524C" d="M505.0005,418.4907C221.8218,418.4907,0,326.5981,0,209.2661C0,91.9131,221.8218,0,505.0005,0
					s505,91.9131,505,209.2661C1010.0005,326.5981,788.1792,418.4907,505.0005,418.4907L505.0005,418.4907z M505.0005,42.083
					c-272.8022,0-462.917,88.1123-462.917,167.1831c0,79.0498,190.1148,167.1411,462.917,167.1411
					c272.8008,0,462.918-88.0913,462.918-167.1411C967.9185,130.1953,777.8013,42.083,505.0005,42.083L505.0005,42.083z"/>
			</g>
			<g>
				<path fill="#5C524C" d="M110.6538,561.8779c-11.6094,0-21.041-9.4111-21.041-21.0421v-215.08
					c0-11.6309,9.4316-21.0425,21.041-21.0425c11.6309,0,21.042,9.4116,21.042,21.0425v215.08
					C131.6958,552.4668,122.2847,561.8779,110.6538,561.8779L110.6538,561.8779z"/>
			</g>
			<g>
				<path fill="#5C524C" d="M182.3477,597.7148c-11.6094,0-21.0415-9.4111-21.0415-21.0419V361.6128
					c0-11.6309,9.4321-21.042,21.0415-21.042c11.6308,0,21.0415,9.4111,21.0415,21.042v215.0601
					C203.3892,588.3037,193.9785,597.7148,182.3477,597.7148L182.3477,597.7148z"/>
			</g>
			<g>
				<path fill="#5C524C" d="M254.0615,615.6738c-11.6298,0-21.041-9.4101-21.041-21.041v-215.102
					c0-11.6304,9.4112-21.0415,21.041-21.0415c11.6104,0,21.0425,9.4111,21.0425,21.0415v215.102
					C275.104,606.2637,265.6719,615.6738,254.0615,615.6738L254.0615,615.6738z"/>
			</g>
			<g>
				<path fill="#5C524C" d="M325.7559,633.5928c-11.6309,0-21.0415-9.412-21.0415-21.043V397.4492
					c0-11.6304,9.4106-21.042,21.0415-21.042c11.6098,0,21.0415,9.4116,21.0415,21.042v215.1006
					C346.7974,624.1807,337.3657,633.5928,325.7559,633.5928L325.7559,633.5928z"/>
			</g>
			<g>
				<path fill="#5C524C" d="M397.4292,633.5928c-11.6103,0-21.042-9.412-21.042-21.043V397.4492
					c0-11.6304,9.4317-21.042,21.042-21.042c11.6299,0,21.042,9.4116,21.042,21.042v215.1006
					C418.4712,624.1807,409.0591,633.5928,397.4292,633.5928L397.4292,633.5928z"/>
			</g>
			<g>
				<path fill="#5C524C" d="M469.1636,651.5117c-11.6304,0-21.041-9.4121-21.041-21.043V397.4492
					c0-11.6304,9.4106-21.042,21.041-21.042c11.6103,0,21.0425,9.4116,21.0425,21.042v233.0195
					C490.2061,642.0996,480.7739,651.5117,469.1636,651.5117L469.1636,651.5117z"/>
			</g>
			<g>
				<path fill="#5C524C" d="M540.8355,651.5117c-11.6084,0-21.0401-9.4121-21.0401-21.043V397.4492
					c0-11.6304,9.4317-21.042,21.0401-21.042c11.6318,0,21.0429,9.4116,21.0429,21.042v233.0195
					C561.8784,642.0996,552.4673,651.5117,540.8355,651.5117L540.8355,651.5117z"/>
			</g>
			<g>
				<path fill="#5C524C" d="M612.5112,633.5928c-11.6113,0-21.0429-9.412-21.0429-21.043V397.4492
					c0-11.6304,9.4316-21.042,21.0429-21.042c11.6289,0,21.0401,9.4116,21.0401,21.042v215.1006
					C633.5513,624.1807,624.1401,633.5928,612.5112,633.5928L612.5112,633.5928z"/>
			</g>
			<g>
				<path fill="#5C524C" d="M684.2232,633.5928c-11.6075,0-21.0391-9.412-21.0391-21.043V397.4492
					c0-11.6304,9.4316-21.042,21.0391-21.042c11.6328,0,21.0429,9.4116,21.0429,21.042v215.1006
					C705.2661,624.1807,695.856,633.5928,684.2232,633.5928L684.2232,633.5928z"/>
			</g>
			<g>
				<path fill="#5C524C" d="M755.939,615.6738c-11.6114,0-21.043-9.4101-21.043-21.041v-215.102
					c0-11.6304,9.4316-21.0415,21.043-21.0415c11.6289,0,21.042,9.4111,21.042,21.0415v215.102
					C776.981,606.2637,767.5679,615.6738,755.939,615.6738L755.939,615.6738z"/>
			</g>
			<g>
				<path fill="#5C524C" d="M827.6118,597.7148c-11.6113,0-21.0428-9.4111-21.0428-21.0419V361.6128
					c0-11.6309,9.4316-21.042,21.0428-21.042c11.6289,0,21.0421,9.4111,21.0421,21.042v215.0601
					C848.6538,588.3037,839.2407,597.7148,827.6118,597.7148L827.6118,597.7148z"/>
			</g>
			<g>
				<path fill="#5C524C" d="M899.3667,561.8779c-11.6084,0-21.04-9.4111-21.04-21.0421v-215.08
					c0-11.6309,9.4316-21.0425,21.04-21.0425c11.6318,0,21.042,9.4116,21.042,21.0425v215.08
					C920.4087,552.4668,910.9985,561.8779,899.3667,561.8779L899.3667,561.8779z"/>
			</g>
		</g>
	</g>
</g>
</svg>
