<?xml version="1.0" encoding="utf-8"?>
<!-- Generator: Adobe Illustrator 17.1.0, SVG Export Plug-In . SVG Version: 6.00 Build 0)  -->
<!DOCTYPE svg PUBLIC "-//W3C//DTD SVG 1.1//EN" "http://www.w3.org/Graphics/SVG/1.1/DTD/svg11.dtd">
<svg version="1.1" id="coupon" xmlns="http://www.w3.org/2000/svg" xmlns:xlink="http://www.w3.org/1999/xlink" x="0px" y="0px"
	 viewBox="0 0 1009.9997 826.8672" enable-background="new 0 0 1009.9997 826.8672" xml:space="preserve">
<g>
	<g id="coupon-coupon">
		<g>
			<g>
				<g>
					<path fill="#5C524C" d="M157.1413,209.4092c-19.9043,0-40.0596-3.6582-59.8745-10.8848
						C26.239,172.7022-14.4129,111.2495,4.7209,58.6196C17.8825,22.4512,56.5978,0,105.7663,0
						c19.8862,0,40.0068,3.6406,59.8032,10.8491c32.7432,11.9068,60.4307,32.2593,77.9859,57.3101
						c18.9365,27.0591,24.1006,56.4136,14.5429,82.666C244.9357,186.9761,206.257,209.4092,157.1413,209.4092L157.1413,209.4092z
						 M105.7663,36.7246c-33.3169,0-58.7988,13.1983-66.5449,34.4473c-11.6914,32.1518,20.6401,74.6689,70.5981,92.8515
						c15.5825,5.6665,31.9365,8.6612,47.3218,8.6612c33.2456,0,58.709-13.1802,66.4561-34.4297
						c5.3432-14.668,1.7392-32.0801-10.1324-49.0259c-13.269-18.936-34.7339-34.5185-60.4477-43.8789
						C137.4699,39.7017,121.1345,36.7246,105.7663,36.7246L105.7663,36.7246z"/>
				</g>
				<g>
					<path fill="#5C524C" d="M626.903,370.4912c-2.6543,0-5.3789-0.5737-7.9443-1.811L237.8708,185.5234
						c-9.1274-4.393-12.9829-15.3676-8.5899-24.5127c4.3765-9.1093,15.314-13.0185,24.5128-8.5893l381.0898,183.1567
						c9.127,4.3926,12.9824,15.3672,8.5898,24.5127C640.3171,366.6538,633.7536,370.4912,626.903,370.4912L626.903,370.4912z"/>
				</g>
			</g>
			<g>
				<g>
					<path fill="#5C524C" d="M105.8381,432.293L105.8381,432.293c-49.2046,0-87.9556-22.4771-101.1172-58.6455
						c-9.5581-26.2705-4.3936-55.625,14.5415-82.666c17.5381-25.0328,45.2256-45.3682,77.9863-57.275
						c19.8145-7.2084,39.9351-10.8667,59.8384-10.8667c49.1343,0,87.8486,22.4502,101.0112,58.5835
						c19.1514,52.648-21.4648,114.1543-92.4746,140.0308C145.8264,428.6436,125.7067,432.293,105.8381,432.293L105.8381,432.293z
						 M157.0871,259.5645c-15.3853,0-31.7393,2.9946-47.2861,8.643c-25.7315,9.3604-47.2149,24.9434-60.4654,43.8618
						c-11.853,16.9273-15.4585,34.3394-10.1142,49.0254c7.7461,21.2671,33.2641,34.4829,66.6167,34.4829l0,0
						c15.3681,0,31.686-2.9946,47.2148-8.625c49.9405-18.2006,82.2534-60.771,70.5445-92.9589
						C215.8503,272.7617,190.3693,259.5645,157.0871,259.5645L157.0871,259.5645z"/>
				</g>
				<g>
					<path fill="#5C524C" d="M245.8508,281.6201c-6.9395,0-13.5923-3.9443-16.6944-10.6689
						c-4.2505-9.1988-0.2329-20.1021,8.9829-24.3697L619.2292,70.562c9.2344-4.2676,20.1191-0.2329,24.3682,8.9839
						c4.25,9.1992,0.2334,20.1016-8.9825,24.3701L253.5251,279.9356C251.0334,281.0825,248.4148,281.6201,245.8508,281.6201
						L245.8508,281.6201z"/>
				</g>
			</g>
		</g>
		<g>
			<path fill="#5C524C" d="M852.2536,826.8672H815.53c-10.1505,0-18.3633-8.2129-18.3633-18.3633
				c0-10.1484,8.2128-18.3613,18.3633-18.3613h36.7236c10.1504,0,18.3623,8.2129,18.3623,18.3613
				C870.6159,818.6543,862.404,826.8672,852.2536,826.8672L852.2536,826.8672z M742.0798,826.8672h-36.7246
				c-10.1494,0-18.3614-8.2129-18.3614-18.3633c0-10.1484,8.212-18.3613,18.3614-18.3613h36.7246
				c10.1504,0,18.3633,8.2129,18.3633,18.3613C760.4431,818.6543,752.2302,826.8672,742.0798,826.8672L742.0798,826.8672z
				 M631.9069,826.8672h-36.7256c-10.1484,0-18.3613-8.2129-18.3613-18.3633c0-10.1484,8.2129-18.3613,18.3613-18.3613h36.7256
				c10.1485,0,18.3623,8.2129,18.3623,18.3613C650.2692,818.6543,642.0554,826.8672,631.9069,826.8672L631.9069,826.8672z
				 M521.7331,826.8672h-36.7246c-10.1499,0-18.3628-8.2129-18.3628-18.3633c0-10.1484,8.2129-18.3613,18.3628-18.3613h36.7246
				c10.1494,0,18.3613,8.2129,18.3613,18.3613C540.0944,818.6543,531.8825,826.8672,521.7331,826.8672L521.7331,826.8672z
				 M411.5588,826.8672h-36.7246c-10.1485,0-18.3618-8.2129-18.3618-18.3633c0-10.1484,8.2133-18.3613,18.3618-18.3613h36.7246
				c10.1499,0,18.3633,8.2129,18.3633,18.3613C429.9221,818.6543,421.7087,826.8672,411.5588,826.8672L411.5588,826.8672z
				 M301.3859,826.8672h-36.7246c-10.1494,0-18.3628-8.2129-18.3628-18.3633c0-10.1484,8.2134-18.3613,18.3628-18.3613h36.7246
				c10.1485,0,18.3618,8.2129,18.3618,18.3613C319.7477,818.6543,311.5344,826.8672,301.3859,826.8672L301.3859,826.8672z
				 M925.3981,823.6748c-8.0693,0-15.457-5.3438-17.6982-13.5205c-2.6729-9.791,3.1016-19.8691,12.874-22.5586
				c9.4678-2.582,18.1475-6.9932,25.8223-13.1621c7.8896-6.3477,19.4385-5.0928,25.8223,2.833
				c6.3476,7.8906,5.0742,19.4746-2.834,25.8233c-11.6192,9.3242-24.7813,16.0302-39.127,19.9394
				C928.6433,823.4609,927.0114,823.6748,925.3981,823.6748L925.3981,823.6748z M192.4318,818.5107
				c-2.583,0-5.2187-0.539-7.7285-1.7216c-13.4678-6.2403-25.3208-15.0625-35.2187-26.1807
				c-6.7603-7.5664-6.0967-19.1865,1.4702-25.9297c7.5854-6.7061,19.1694-6.0967,25.9297,1.4706
				c6.563,7.3878,14.3989,13.1983,23.3115,17.3214c9.1816,4.3047,13.1802,15.207,8.9126,24.4238
				C205.988,814.5654,199.3537,818.5107,192.4318,818.5107L192.4318,818.5107z M991.3688,744.0215c-0.5019,0-1.0224,0-1.541-0.0713
				c-10.1142-0.8252-17.6093-9.6836-16.7666-19.7978c0.1436-1.8643,0.2149-3.7657,0.2149-5.6661v-29.5156
				c0-10.1494,8.2119-18.3623,18.3632-18.3623c10.1485,0,18.3604,8.2129,18.3604,18.3623v29.5156
				c0,2.9405-0.1064,5.8457-0.3574,8.7159C1008.8532,736.7764,1000.82,744.0215,991.3688,744.0215L991.3688,744.0215z
				 M140.3747,728.959c-10.1484,0-18.3618-8.2129-18.3618-18.3623v-36.7246c0-10.1504,8.2134-18.3623,18.3618-18.3623
				c10.1494,0,18.3628,8.2119,18.3628,18.3623v36.7246C158.7375,720.7461,150.5241,728.959,140.3747,728.959L140.3747,728.959z
				 M991.6393,633.8838c-10.1513,0-18.3632-8.2129-18.3632-18.3623v-36.7246c0-10.1494,8.2119-18.3613,18.3632-18.3613
				c10.1485,0,18.3604,8.2119,18.3604,18.3613v36.7246C1009.9997,625.6709,1001.7878,633.8838,991.6393,633.8838L991.6393,633.8838z
				 M140.3747,618.7852c-10.1484,0-18.3618-8.2129-18.3618-18.3614v-36.7256c0-10.1494,8.2134-18.3623,18.3618-18.3623
				c10.1494,0,18.3628,8.2129,18.3628,18.3623v36.7256C158.7375,610.5723,150.5241,618.7852,140.3747,618.7852L140.3747,618.7852z
				 M991.6393,523.71c-10.1513,0-18.3632-8.2129-18.3632-18.3623V468.624c0-10.1494,8.2119-18.3633,18.3632-18.3633
				c10.1485,0,18.3604,8.2139,18.3604,18.3633v36.7237C1009.9997,515.4971,1001.7878,523.71,991.6393,523.71L991.6393,523.71z
				 M140.3747,508.6113c-10.1484,0-18.3618-8.2119-18.3618-18.3623v-32.3857c0-10.1485,8.2134-18.3613,18.3618-18.3613
				c10.1494,0,18.3628,8.2128,18.3628,18.3613v32.3857C158.7375,500.3994,150.5241,508.6113,140.3747,508.6113L140.3747,508.6113z
				 M991.6393,413.5278c-10.1513,0-18.3632-8.2129-18.3632-18.3628v-36.7246c0-10.1489,8.2119-18.3618,18.3632-18.3618
				c10.1485,0,18.3604,8.2129,18.3604,18.3618v36.7246C1009.9997,405.3149,1001.7878,413.5278,991.6393,413.5278L991.6393,413.5278z
				 M988.0339,303.7129c-7.9619,0-15.2783-5.2007-17.627-13.1978c-2.7441-9.3784-7.3349-17.9863-13.6631-25.5888
				c-6.493-7.7827-5.4344-19.3667,2.3654-25.8579c7.7832-6.4917,19.3486-5.398,25.8584,2.3667
				c9.5576,11.4765,16.5156,24.5136,20.6933,38.7509c2.8516,9.7373-2.7431,19.9405-12.463,22.792
				C991.4772,303.48,989.737,303.7129,988.0339,303.7129L988.0339,303.7129z M907.1794,239.2476
				c-0.3594,0-0.7354-0.0181-1.0938-0.0357c-1.4707-0.0898-2.9414-0.126-4.4296-0.126h-31.2198
				c-10.1484,0-18.3623-8.2128-18.3623-18.3623c0-10.1489,8.2139-18.3623,18.3623-18.3623h31.2198
				c2.205,0,4.3935,0.0718,6.581,0.1973c10.1318,0.5923,17.8418,9.2891,17.251,19.4028
				C924.9128,231.7168,916.8259,239.2476,907.1794,239.2476L907.1794,239.2476z M796.988,239.0859h-36.7246
				c-10.1504,0-18.3633-8.2128-18.3633-18.3623c0-10.1489,8.213-18.3623,18.3633-18.3623h36.7246
				c10.1494,0,18.3613,8.2134,18.3613,18.3623C815.3493,230.8731,807.1374,239.0859,796.988,239.0859L796.988,239.0859z
				 M686.8142,239.0859h-36.7237c-10.1504,0-18.3633-8.2128-18.3633-18.3623c0-10.1489,8.2129-18.3623,18.3633-18.3623h36.7237
				c10.1494,0,18.3623,8.2134,18.3623,18.3623C705.1765,230.8731,696.9636,239.0859,686.8142,239.0859L686.8142,239.0859z
				 M576.6403,239.0859h-36.7246c-10.1494,0-18.3613-8.2128-18.3613-18.3623c0-10.1489,8.2119-18.3623,18.3613-18.3623h36.7246
				c10.1485,0,18.3623,8.2134,18.3623,18.3623C595.0026,230.8731,586.7888,239.0859,576.6403,239.0859L576.6403,239.0859z"/>
		</g>
	</g>
</g>
</svg>
