<?xml version="1.0" encoding="utf-8"?>
<!-- Generator: Adobe Illustrator 17.1.0, SVG Export Plug-In . SVG Version: 6.00 Build 0)  -->
<!DOCTYPE svg PUBLIC "-//W3C//DTD SVG 1.1//EN" "http://www.w3.org/Graphics/SVG/1.1/DTD/svg11.dtd">
<svg version="1.1" id="discount-ticket" xmlns="http://www.w3.org/2000/svg" xmlns:xlink="http://www.w3.org/1999/xlink" x="0px"
	 y="0px" viewBox="0 0 1010 731.9633" enable-background="new 0 0 1010 731.9633" xml:space="preserve">
<g>
	<g id="discount-ticket-discount-ticket">
		<g>
			<path fill="#5C524C" d="M926.1074,731.9633H83.8921v-18.3642c0-35.5068-29.3926-64.3799-65.5278-64.3799H0V82.7802h18.3643
				c36.1352,0,65.5278-28.8911,65.5278-64.416V0h842.2153v18.3642c0,35.5249,29.3926,64.416,65.5283,64.416H1010v566.439h-18.3643
				c-36.1357,0-65.5283,28.8731-65.5283,64.3799V731.9633L926.1074,731.9633z M118.9336,695.2358h772.1318
				c7.6778-41.1211,40.584-73.6162,82.208-81.1123V117.8759c-41.624-7.4961-74.5302-40.0097-82.208-81.1484H118.9336
				c-7.6665,41.1387-40.583,73.6523-82.2065,81.1484v496.2476C78.3506,621.6196,111.2671,654.1147,118.9336,695.2358
				L118.9336,695.2358z"/>
		</g>
		<g>
			<path fill="#5C524C" d="M867.6279,665.7905H142.3271l-5.102-10.0791c-12.8218-25.376-34.0913-46.3398-59.8975-59.0723
				l-10.2392-5.039V140.4179l10.2578-5.04c25.7969-12.6777,47.0571-33.6606,59.8701-59.0723l5.0928-10.0962h725.3374l5.0918,10.0791
				c12.8408,25.4112,34.1455,46.4117,59.9336,59.0894l10.2578,5.04v451.1822l-10.2393,5.039
				c-25.8066,12.7324-47.1113,33.7139-59.9521,59.0908L867.6279,665.7905L867.6279,665.7905z M164.4565,629.063h681.0591
				c14.7051-24.5879,35.7589-45.3536,60.6875-59.8624V162.8344c-24.9472-14.4902-46.001-35.2573-60.6875-59.8974H164.4658
				c-14.6694,24.6401-35.7046,45.4072-60.6499,59.8974v406.3661C128.752,583.7094,149.7788,604.4751,164.4565,629.063
				L164.4565,629.063z"/>
		</g>
		<g>
			<path fill="#5C524C" d="M505,599.5454c-130.4282,0-236.5391-104.7666-236.5391-233.5459
				c0-128.7964,106.1109-233.5806,236.5391-233.5806c130.4287,0,236.5381,104.7842,236.5381,233.5806
				C741.5381,494.7788,635.4287,599.5454,505,599.5454L505,599.5454z M505,169.1465c-110.1724,0-199.812,88.3037-199.812,196.853
				c0,108.5312,89.6396,196.8174,199.812,196.8174c110.1816,0,199.8125-88.2862,199.8125-196.8174
				C704.8125,257.4502,615.1816,169.1465,505,169.1465L505,169.1465z"/>
		</g>
		<g>
			<g>
				<polygon fill="#5C524C" points="405.9907,489.4516 380.2026,463.3061 603.9727,242.5468 629.7627,268.6943 405.9907,489.4516 
									"/>
			</g>
			<g>
				<path fill="#5C524C" d="M435.0601,356.7641c-33.2657,0-60.3267-26.81-60.3267-59.7534c0-32.9429,27.061-59.7529,60.3267-59.7529
					c33.2661,0,60.3281,26.81,60.3281,59.7529C495.3882,329.9541,468.3262,356.7641,435.0601,356.7641L435.0601,356.7641z
					 M435.0601,273.9839c-13.0103,0-23.5997,10.3305-23.5997,23.0268c0,12.6963,10.5894,23.0259,23.5997,23.0259
					c13.0107,0,23.6005-10.3296,23.6005-23.0259C458.6606,284.3144,448.0708,273.9839,435.0601,273.9839L435.0601,273.9839z"/>
			</g>
			<g>
				<path fill="#5C524C" d="M574.9209,494.7417c-33.2666,0-60.3096-26.8096-60.3096-59.753
					c0-32.9433,27.043-59.7529,60.3096-59.7529s60.3096,26.8096,60.3096,59.7529
					C635.2305,467.9321,608.1875,494.7417,574.9209,494.7417L574.9209,494.7417z M574.9209,411.9633
					c-13,0-23.5811,10.3291-23.5811,23.0254c0,12.6973,10.5811,23.0274,23.5811,23.0274c13.002,0,23.583-10.3301,23.583-23.0274
					C598.5039,422.2924,587.9229,411.9633,574.9209,411.9633L574.9209,411.9633z"/>
			</g>
		</g>
		<g>
			<polygon fill="#5C524C" points="874.1738,384.3637 773.4961,384.3637 773.4961,347.6362 874.1738,347.6362 874.1738,384.3637 			
				"/>
		</g>
		<g>
			<polygon fill="#5C524C" points="236.5034,384.3637 135.8267,384.3637 135.8267,347.6362 236.5034,347.6362 236.5034,384.3637 			
				"/>
		</g>
	</g>
</g>
</svg>
