<?xml version="1.0" encoding="utf-8"?>
<!-- Generator: Adobe Illustrator 17.1.0, SVG Export Plug-In . SVG Version: 6.00 Build 0)  -->
<!DOCTYPE svg PUBLIC "-//W3C//DTD SVG 1.1//EN" "http://www.w3.org/Graphics/SVG/1.1/DTD/svg11.dtd">
<svg version="1.1" id="dollar-coin" xmlns="http://www.w3.org/2000/svg" xmlns:xlink="http://www.w3.org/1999/xlink" x="0px"
	 y="0px" viewBox="0 0 1010 1010" enable-background="new 0 0 1010 1010" xml:space="preserve">
<g>
	<g id="dollar-coin-dollar-coin">
		<g>
			<path fill="#5C524C" d="M505.0356,1010C226.5503,1010,0,783.4492,0,505S226.5503,0,505.0356,0C783.4678,0,1010,226.5508,1010,505
				S783.4678,1010,505.0356,1010L505.0356,1010z M505.0356,36.7271C246.8154,36.7271,36.7271,246.7969,36.7271,505
				c0,258.2021,210.0883,468.2725,468.3085,468.2725c258.1841,0,468.2378-210.0704,468.2378-468.2725
				C973.2734,246.7969,763.2197,36.7271,505.0356,36.7271L505.0356,36.7271z"/>
		</g>
		<g>
			<g>
				<path fill="#5C524C" d="M505.0181,763.1309c-10.1504,0-18.3638-8.2139-18.3638-18.3633V265.2148
					c0-10.1503,8.2134-18.3632,18.3638-18.3632c10.1499,0,18.3628,8.2129,18.3628,18.3632v479.5528
					C523.3809,754.917,515.168,763.1309,505.0181,763.1309L505.0181,763.1309z"/>
			</g>
			<g>
				<path fill="#5C524C" d="M697.2275,360.207L697.2275,360.207l-384.4716-0.0361c-10.1504,0-18.3643-8.231-18.3643-18.3628
					c0-10.1504,8.2319-18.3643,18.3643-18.3643l0,0l384.4716,0.0357c10.1495,0,18.3614,8.2314,18.3614,18.3642
					C715.5889,351.9937,707.3584,360.207,697.2275,360.207L697.2275,360.207z"/>
			</g>
			<g>
				<path fill="#5C524C" d="M697.2275,520.0459H312.7559c-10.1504,0-18.3643-8.2139-18.3643-18.3633
					c0-10.1499,8.2139-18.3638,18.3643-18.3638h384.4716c10.1495,0,18.3614,8.2139,18.3614,18.3638
					C715.5889,511.832,707.377,520.0459,697.2275,520.0459L697.2275,520.0459z"/>
			</g>
			<g>
				<path fill="#5C524C" d="M697.2275,686.502H312.7559c-10.1504,0-18.3643-8.2139-18.3643-18.3633
					c0-10.1504,8.2139-18.3643,18.3643-18.3643h384.4716c10.1495,0,18.3614,8.2139,18.3614,18.3643
					C715.5889,678.2881,707.377,686.502,697.2275,686.502L697.2275,686.502z"/>
			</g>
			<g>
				<path fill="#5C524C" d="M312.7559,509.7529L312.7559,509.7529c-10.1504,0-18.3643-8.2319-18.3643-18.3647l0.0542-141.6538
					c0-10.1504,8.2314-18.3643,18.3633-18.3643l0,0c10.1504,0,18.3642,8.232,18.3642,18.3643l-0.0542,141.6538
					C331.1191,501.5391,322.8882,509.7529,312.7559,509.7529L312.7559,509.7529z"/>
			</g>
			<g>
				<path fill="#5C524C" d="M697.2275,685.5879c-10.1513,0-18.3642-8.2139-18.3642-18.3643V501.7002
					c0-10.1504,8.2129-18.3633,18.3642-18.3633c10.1495,0,18.3614,8.2129,18.3614,18.3633v165.5234
					C715.5889,677.374,707.377,685.5879,697.2275,685.5879L697.2275,685.5879z"/>
			</g>
		</g>
	</g>
</g>
</svg>
