<?xml version="1.0" encoding="utf-8"?>
<!-- Generator: Adobe Illustrator 17.1.0, SVG Export Plug-In . SVG Version: 6.00 Build 0)  -->
<!DOCTYPE svg PUBLIC "-//W3C//DTD SVG 1.1//EN" "http://www.w3.org/Graphics/SVG/1.1/DTD/svg11.dtd">
<svg version="1.1" id="dollar-bills" xmlns="http://www.w3.org/2000/svg" xmlns:xlink="http://www.w3.org/1999/xlink" x="0px"
	 y="0px" viewBox="0 0 1010 748.1469" enable-background="new 0 0 1010 748.1469" xml:space="preserve">
<g>
	<g id="dollar-bills-dollar-bills">
		<g>
			<polygon fill="#5C524C" points="1010,673.3335 0,673.3335 0,635.9253 1010,635.9253 1010,673.3335 			"/>
		</g>
		<g>
			<polygon fill="#5C524C" points="1010,748.1469 0,748.1469 0,710.7407 1010,710.7407 1010,748.1469 			"/>
		</g>
		<g>
			<polygon fill="#5C524C" points="1010,598.518 0,598.518 0,561.1108 1010,561.1108 1010,598.518 			"/>
		</g>
		<g>
			<path fill="#5C524C" d="M1010,523.7046H0V0h1010V523.7046L1010,523.7046z M37.4072,486.2954h935.1866V37.4077H37.4072V486.2954
				L37.4072,486.2954z"/>
		</g>
		<g>
			<path fill="#5C524C" d="M860.3691,448.8891H168.3335v-18.705c0-29.1504-9.0596-56.1104-74.8154-56.1104H74.8149V149.6294h18.7032
				c65.7558,0,74.8154-26.96,74.8154-56.1109V74.8154h692.0356v18.7031c0,46.3755,30.5235,56.1109,56.1133,56.1109h18.7022v224.4443
				h-18.7022c-25.5898,0-56.1133,9.7354-56.1133,56.1104V448.8891L860.3691,448.8891z M204.3706,411.4809h619.8901
				c6.7569-46.4116,38.9766-67.9101,73.5176-73.3711V185.5932c-34.541-5.4609-66.7607-26.9585-73.5176-73.3716H204.3706
				c-5.2607,34.3936-27.2881,68.6226-92.1484,74.0665V337.415C177.0825,342.8584,199.1099,377.0874,204.3706,411.4809
				L204.3706,411.4809z"/>
		</g>
		<g>
			<path fill="#5C524C" d="M505,374.0737c-61.8828,0-112.2222-50.3394-112.2222-112.2217
				c0-61.8838,50.3394-112.2226,112.2222-112.2226s112.2217,50.3388,112.2217,112.2226
				C617.2217,323.7343,566.8828,374.0737,505,374.0737L505,374.0737z M505,187.0371c-41.2612,0-74.8145,33.5532-74.8145,74.8149
				c0,41.2608,33.5533,74.814,74.8145,74.814c41.2617,0,74.8154-33.5532,74.8154-74.814
				C579.8154,220.5903,546.2617,187.0371,505,187.0371L505,187.0371z"/>
		</g>
	</g>
</g>
</svg>
