<?xml version="1.0" encoding="utf-8"?>
<!-- Generator: Adobe Illustrator 17.1.0, SVG Export Plug-In . SVG Version: 6.00 Build 0)  -->
<!DOCTYPE svg PUBLIC "-//W3C//DTD SVG 1.1//EN" "http://www.w3.org/Graphics/SVG/1.1/DTD/svg11.dtd">
<svg version="1.1" id="giftbox" xmlns="http://www.w3.org/2000/svg" xmlns:xlink="http://www.w3.org/1999/xlink" x="0px" y="0px"
	 viewBox="0 0 924.6372 1010" enable-background="new 0 0 924.6372 1010" xml:space="preserve">
<g>
	<g id="giftbox-giftbox">
		<g>
			<g>
				<rect x="547.6977" y="240.3413" fill="none" width="358.5752" height="170.7427"/>
			</g>
			<g>
				<rect x="376.9389" y="240.3413" fill="none" width="170.7588" height="170.7427"/>
			</g>
			<g>
				<rect x="376.9389" y="411.084" fill="none" width="170.7588" height="580.5527"/>
			</g>
			<g>
				<rect x="18.3627" y="240.3413" fill="none" width="358.5762" height="170.7427"/>
			</g>
			<g>
				<rect x="52.8847" y="411.084" fill="none" width="324.0542" height="580.5527"/>
			</g>
			<g>
				<rect x="547.6977" y="411.084" fill="none" width="326.1699" height="580.5527"/>
			</g>
		</g>
		<g>
			<g>
				<polygon fill="#5C524C" points="395.3022,991.6367 358.5747,991.6367 358.5747,240.3413 395.3022,240.3413 395.3022,991.6367 
									"/>
			</g>
			<g>
				<polygon fill="#5C524C" points="566.062,991.6367 529.3364,991.6367 529.3364,240.3413 566.062,240.3413 566.062,991.6367 				
					"/>
			</g>
			<g>
				<path fill="#5C524C" d="M873.8676,1010H52.8847c-10.1504,0-18.3638-8.2314-18.3638-18.3633V411.084h36.7276v562.1885h784.2568
					V411.084h36.7266v580.5527C892.2319,1001.7686,884.019,1010,873.8676,1010L873.8676,1010z"/>
			</g>
			<g>
				<path fill="#5C524C" d="M906.2729,429.4468H18.3627C8.2128,429.4468,0,421.2158,0,411.084V240.3413
					c0-10.1504,8.2128-18.3638,18.3627-18.3638h887.9102c10.1514,0,18.3643,8.2134,18.3643,18.3638V411.084
					C924.6372,421.2158,916.4243,429.4468,906.2729,429.4468L906.2729,429.4468z M36.7275,392.7202h851.1831V258.7046H36.7275
					V392.7202L36.7275,392.7202z"/>
			</g>
			<g>
				<g>
					<path fill="#5C524C" d="M462.3188,241.6323c-0.6099,0-1.2012-0.0356-1.8115-0.0893
						c-5.6665-0.5743-139.1621-14.3828-191.4732-66.6939c-39.8833-39.9555-39.8833-104.9272-0.0175-144.8647
						C288.3842,10.6523,314.101,0,341.4487,0c27.3667,0,53.0825,10.6523,72.4326,29.9658
						c52.3477,52.3477,66.1553,185.8247,66.7119,191.4922c0.5381,5.4692-1.3984,10.9028-5.291,14.7944
						C471.8403,239.7134,467.1616,241.6323,462.3188,241.6323L462.3188,241.6323z M341.4487,36.7271
						c-17.5562,0-34.0371,6.8325-46.4473,19.2246c-25.5732,25.6088-25.5732,67.3032,0.0186,92.9301
						c29.5361,29.5537,102.0576,46.2134,145.9946,53.0645c-6.8511-43.9365-23.5293-116.4229-53.1011-145.9946
						C375.5039,43.5596,359.0053,36.7271,341.4487,36.7271L341.4487,36.7271z"/>
				</g>
				<g>
					<path fill="#5C524C" d="M462.3188,241.6323c-4.8418,0-9.5225-1.9189-12.9839-5.3799
						c-3.8911-3.8916-5.8281-9.3252-5.2895-14.7944c0.5556-5.6675,14.3637-139.1445,66.7119-191.4736
						C530.1069,10.6523,555.8227,0,583.1899,0c27.3477,0,53.0635,10.6523,72.4131,29.9658
						c39.8847,39.9561,39.8847,104.9278,0.0185,144.8653c-52.33,52.3291-185.8242,66.1376-191.4902,66.7119
						C463.519,241.5967,462.9287,241.6323,462.3188,241.6323L462.3188,241.6323z M583.1899,36.7271
						c-17.5566,0-34.0557,6.8325-46.4648,19.2246c-29.6446,29.6254-46.2872,102.0937-53.1016,146.0122
						c43.9355-6.8687,116.458-23.5284,146.0127-53.0821c25.5722-25.6269,25.5722-67.3213-0.0186-92.9482
						C617.227,43.5596,600.727,36.7271,583.1899,36.7271L583.1899,36.7271z"/>
				</g>
			</g>
			<g>
				<path fill="#5C524C" d="M480.6831,922.2354H443.955v-36.7276h36.7281V922.2354L480.6831,922.2354z M480.6831,848.7803H443.955
					v-36.7276h36.7281V848.7803L480.6831,848.7803z M480.6831,775.3262H443.955v-36.7285h36.7281V775.3262L480.6831,775.3262z
					 M480.6831,701.8721H443.955v-36.7276h36.7281V701.8721L480.6831,701.8721z M480.6831,628.417H443.955v-36.7275h36.7281V628.417
					L480.6831,628.417z M480.6831,554.9619H443.955v-36.7265h36.7281V554.9619L480.6831,554.9619z M480.6831,481.5073H443.955
					v-36.727h36.7281V481.5073L480.6831,481.5073z"/>
			</g>
		</g>
	</g>
</g>
</svg>
