<?xml version="1.0" encoding="utf-8"?>
<!-- Generator: Adobe Illustrator 17.1.0, SVG Export Plug-In . SVG Version: 6.00 Build 0)  -->
<!DOCTYPE svg PUBLIC "-//W3C//DTD SVG 1.1//EN" "http://www.w3.org/Graphics/SVG/1.1/DTD/svg11.dtd">
<svg version="1.1" id="hand-package" xmlns="http://www.w3.org/2000/svg" xmlns:xlink="http://www.w3.org/1999/xlink" x="0px"
	 y="0px" viewBox="0 0 1010 827.5889" enable-background="new 0 0 1010 827.5889" xml:space="preserve">
<g>
	<g id="hand-package-hand-package">
		<g id="hand-package-package">
			<g>
				<path fill="#5C524C" d="M924.207,532.1182H485.8652c-10.1318,0-18.3637-8.2119-18.3637-18.3613
					c0-10.1524,8.2319-18.3643,18.3637-18.3643h419.9776V36.7408H277.9829v337.9697c0,10.1504-8.2129,18.3628-18.3638,18.3628
					c-10.1318,0-18.3628-8.2124-18.3628-18.3628V18.377c0-10.1504,8.231-18.3638,18.3628-18.3638H924.207
					c10.1494,0,18.3643,8.2134,18.3643,18.3638v495.3799C942.5713,523.9063,934.3564,532.1182,924.207,532.1182L924.207,532.1182z"
					/>
			</g>
			<g>
				<path fill="#5C524C" d="M294.7866,459.2042c-3.0488,0-6.1333-0.7549-8.9848-2.3321
					c-8.8409-4.9853-11.9786-16.1758-7.0113-25.0254l97.395-173.2002c3.2642-5.7749,9.379-9.3613,16.0142-9.3613h112.9082
					c10.1499,0,18.3628,8.2134,18.3628,18.3638c0,10.1504-8.2129,18.3637-18.3628,18.3637h-102.166l-92.1411,163.8292
					C307.4297,455.8311,301.207,459.2042,294.7866,459.2042L294.7866,459.2042z"/>
			</g>
			<g>
				<path fill="#5C524C" d="M914.2012,521.1797c-7.0655,0-13.792-4.0878-16.8223-10.9755l-98.6328-224.1915H678.7197
					c-10.1328,0-18.3642-8.2133-18.3642-18.3637c0-10.1504,8.2314-18.3638,18.3642-18.3638h132.0059
					c7.2803,0,13.8789,4.3042,16.8223,10.9751l103.455,235.1665c4.0713,9.291-0.1435,20.1231-9.4131,24.2109
					C919.168,520.6788,916.6572,521.1797,914.2012,521.1797L914.2012,521.1797z"/>
			</g>
			<g>
				<path fill="#5C524C" d="M810.7256,286.0127c-2.5459,0-5.1289-0.52-7.6035-1.6499c-9.2354-4.1962-13.3067-15.1001-9.1104-24.3173
					L907.4932,10.773c4.1963-9.2173,15.082-13.3242,24.3359-9.1099c9.2168,4.1963,13.3066,15.0996,9.0918,24.3174L827.4395,275.252
					C824.3721,282.0137,817.7012,286.0127,810.7256,286.0127L810.7256,286.0127z"/>
			</g>
			<g>
				<path fill="#5C524C" d="M392.2183,286.0127c-6.5821,0-12.9302-3.5332-16.23-9.7382L243.4077,27.003
					c-4.7519-8.9492-1.3628-20.085,7.586-24.8379c8.9668-4.7876,20.085-1.3628,24.8374,7.5859l132.5805,249.272
					c4.7525,8.9487,1.3628,20.085-7.5859,24.8379C398.0645,285.3311,395.123,286.0127,392.2183,286.0127L392.2183,286.0127z"/>
			</g>
		</g>
		<g id="hand-package-hand">
			<g>
				<path fill="#5C524C" d="M587.3486,827.5889c-71.3379,0-153.7588-41.8926-219.9863-75.5722
					c-40.9951-20.8389-79.7129-40.5303-97.7539-40.5303c-10.1504,0-18.3633-8.2119-18.3633-18.3613
					c0-10.1524,8.2129-18.3643,18.3633-18.3643c26.8286,0,65.4741,19.6543,114.4141,44.5459
					c62.7124,31.8867,140.7754,71.5527,203.3261,71.5527c114.4141,0,385.9248-151.6435,385.9248-200.707
					c0-37.8047-16.0332-54.6982-52.0254-54.6982c-11.622,0-44.1884,27.332-67.9677,47.2724
					c-50.0869,42.001-106.8809,89.666-155.5518,75.6426c-9.0556-2.582-14.6875-11.6211-13.0029-20.9102
					c2.9775-16.499,0.3955-29.374-7.8897-39.2744c-26.3437-31.4912-102.6855-31.3828-135.414-31.4541h-2.3135
					c-22.3799,0-39.6499-12.6611-59.6636-27.3291c-35.8476-26.291-84.9497-62.3017-202.3408-63.9502
					c-10.1318-0.1455-18.2378-8.4668-18.1123-18.6152c0.1436-10.1494,9.0918-17.8984,18.6147-18.1133
					c129.1373,1.794,185.9498,43.4707,223.5557,71.0518c16.0137,11.7636,27.5986,20.2295,37.9463,20.2295h2.2949
					c40.71,0.4296,126.2696-0.0371,163.6055,44.6162c11.4941,13.7734,17.3965,30.164,17.6465,48.9599
					c30.6299-4.914,74.0107-41.3193,107.0254-69.0097c37.2109-31.2022,66.5859-55.8428,91.5673-55.8428
					c56.3995,0,88.752,33.3193,88.752,91.4248C1010,671.7833,710.1738,827.5889,587.3486,827.5889L587.3486,827.5889z"/>
			</g>
			<g>
				<path fill="#5C524C" d="M259.6191,759.1906H18.3643C8.2134,759.1906,0,750.9756,0,740.8262V373.6343
					c0-10.1499,8.2134-18.3637,18.3643-18.3637h241.2548c10.1508,0,18.3638,8.2138,18.3638,18.3637v367.1919
					C277.9829,750.9756,269.77,759.1906,259.6191,759.1906L259.6191,759.1906z M36.7271,722.462h204.5292V391.9981H36.7271V722.462
					L36.7271,722.462z"/>
			</g>
			<g>
				<path fill="#5C524C" d="M702.7852,659.088H435.688c-10.1323,0-18.3633-8.2158-18.3633-18.3643
					c0-10.1494,8.231-18.3652,18.3633-18.3652h267.0972c10.1494,0,18.3642,8.2158,18.3642,18.3652
					C721.1494,650.8721,712.9346,659.088,702.7852,659.088L702.7852,659.088z"/>
			</g>
			<g>
				<g>
					<path fill="#5C524C" d="M249.8818,459.2042H38.6279c-10.1499,0-18.3633-8.2149-18.3633-18.3643
						c0-10.1426,8.2134-18.3555,18.3633-18.3555h211.2539c10.1499,0,18.3633,8.2129,18.3633,18.3555
						C268.2451,450.9893,260.0317,459.2042,249.8818,459.2042L249.8818,459.2042z"/>
				</g>
				<g>
					<path fill="#5C524C" d="M249.8818,533.5889H38.6279c-10.1499,0-18.3633-8.2129-18.3633-18.3623
						c0-10.1514,8.2134-18.3642,18.3633-18.3642h211.2539c10.1499,0,18.3633,8.2128,18.3633,18.3642
						C268.2451,525.376,260.0317,533.5889,249.8818,533.5889L249.8818,533.5889z"/>
				</g>
				<g>
					<path fill="#5C524C" d="M249.8818,607.9044H38.6279c-10.1499,0-18.3633-8.212-18.3633-18.3643
						c0-10.1484,8.2134-18.3613,18.3633-18.3613h211.2539c10.1499,0,18.3633,8.2129,18.3633,18.3613
						C268.2451,599.6924,260.0317,607.9044,249.8818,607.9044L249.8818,607.9044z"/>
				</g>
				<g>
					<path fill="#5C524C" d="M249.8818,682.2579H38.6279c-10.1499,0-18.3633-8.2149-18.3633-18.3643
						c0-10.1523,8.2134-18.3642,18.3633-18.3642h211.2539c10.1499,0,18.3633,8.2119,18.3633,18.3642
						C268.2451,674.043,260.0317,682.2579,249.8818,682.2579L249.8818,682.2579z"/>
				</g>
			</g>
		</g>
		<g>
			<path fill="#5C524C" d="M518.8799,405.1963l-32.1533-32.082V0.0132H697.082v373.1011l-32.1718,32.082l-38.2872-19.1699
				l-34.7177,17.3594l-34.7207-17.3594L518.8799,405.1963L518.8799,405.1963z M557.1846,344.959l34.7207,17.3594l34.7177-17.3594
				l31.0782,15.5484l2.6543-2.6367V36.7408H523.4521v321.1299l2.6543,2.6367L557.1846,344.959L557.1846,344.959z"/>
		</g>
	</g>
</g>
</svg>
