<?xml version="1.0" encoding="utf-8"?>
<!-- Generator: Adobe Illustrator 17.1.0, SVG Export Plug-In . SVG Version: 6.00 Build 0)  -->
<!DOCTYPE svg PUBLIC "-//W3C//DTD SVG 1.1//EN" "http://www.w3.org/Graphics/SVG/1.1/DTD/svg11.dtd">
<svg version="1.1" id="info" xmlns="http://www.w3.org/2000/svg" xmlns:xlink="http://www.w3.org/1999/xlink" x="0px" y="0px"
	 viewBox="0 0 1010.0002 1009.9218" enable-background="new 0 0 1010.0002 1009.9218" xml:space="preserve">
<g id="info-info">
	<g id="info-info_1_">
		<g>
			<g>
				<path fill="#5C524C" d="M488.1989,639.1562c-10.3383,0-18.7031-8.3662-18.7031-18.7041V531.08
					c0-10.338,8.3648-18.7031,18.7031-18.7031c83.6548,0,142.0669-51.5083,142.0669-125.2627
					c0-73.7558-46.576-125.2817-113.2802-125.2817c-71.856,0-137.2823,63.143-137.2823,132.478
					c0,10.3379-8.3647,18.7031-18.7031,18.7031s-18.7031-8.3652-18.7031-18.7031c0-90.5044,81.6264-169.8857,174.6885-169.8857
					c87.3076,0,150.6875,68.4223,150.6875,162.6894c0,88.5127-66.5586,154.2315-160.7696,161.9199v71.418
					C506.9035,630.79,498.5373,639.1562,488.1989,639.1562L488.1989,639.1562z"/>
			</g>
			<g>
				<path fill="#5C524C" d="M488.1989,785.5332c-10.3383,0-18.7031-8.3662-18.7031-18.7032v-48.787
					c0-10.3369,8.3648-18.7031,18.7031-18.7031c10.3384,0,18.7046,8.3662,18.7046,18.7031v48.787
					C506.9035,777.167,498.5373,785.5332,488.1989,785.5332L488.1989,785.5332z"/>
			</g>
		</g>
		<g>
			<path fill="#5C524C" d="M505.0036,1009.9218c-110.2309,0-214.7993-35.0693-303.0205-101.5195L23.6413,957.1904
				c-6.5757,1.7891-13.6802-0.1465-18.4292-5.0977c-4.749-4.9482-6.4111-12.1093-4.3291-18.6298l60.0928-188.3506
				C21.0661,671.375,0.0061,588.5244,0.0061,504.9609C0.0061,226.5254,226.5495,0,505.0036,0
				c278.4527,0,504.9966,226.5254,504.9966,504.9609S783.4562,1009.9218,505.0036,1009.9218L505.0036,1009.9218z M206.0012,869.206
				c4.1284,0,8.2011,1.3701,11.5254,3.9639c83.1255,64.9883,182.5429,99.3438,287.477,99.3438
				c257.8316,0,467.5894-209.7393,467.5894-467.5527c0-257.814-209.7578-467.5532-467.5894-467.5532
				c-257.8325,0-467.5903,209.7392-467.5903,467.5532c0,79.874,20.8037,159.0537,60.1294,228.9912
				c2.5566,4.5303,3.1045,9.8994,1.5342,14.8496L47.0031,912.0195L201.07,869.8632
				C202.6955,869.4248,204.3576,869.206,206.0012,869.206L206.0012,869.206z"/>
		</g>
	</g>
</g>
</svg>
