<?xml version="1.0" encoding="utf-8"?>
<!-- Generator: Adobe Illustrator 17.1.0, SVG Export Plug-In . SVG Version: 6.00 Build 0)  -->
<!DOCTYPE svg PUBLIC "-//W3C//DTD SVG 1.1//EN" "http://www.w3.org/Graphics/SVG/1.1/DTD/svg11.dtd">
<svg version="1.1" id="label-tag" xmlns="http://www.w3.org/2000/svg" xmlns:xlink="http://www.w3.org/1999/xlink" x="0px" y="0px"
	 viewBox="0 0 1009.9996 997.3637" enable-background="new 0 0 1009.9996 997.3637" xml:space="preserve">
<g>
	<g id="label-tag-label-tag">
		<g>
			<path fill="#5C524C" d="M435.1695,997.3637c-4.7856,0-9.5722-1.8261-13.2246-5.4796L5.4747,575.4145
				c-7.269-7.2685-7.3057-19.0498-0.0728-26.374L491.8468,57.061c7.2505-7.3428,19.0688-7.4155,26.4487-0.146
				c7.3418,7.2608,7.415,19.1055,0.1455,26.4483L45.0748,562.1176l390.0947,390.0948L920.481,466.937
				c7.3057-7.3062,19.1417-7.3062,26.4493,0c7.3056,7.3061,7.3056,19.1421,0,26.4482l-498.5367,498.499
				C444.7403,995.5376,439.9547,997.3637,435.1695,997.3637L435.1695,997.3637z"/>
		</g>
		<g>
			<path fill="#5C524C" d="M933.7057,499.4126c-10.3213,0-18.7041-8.3653-18.7041-18.6944l-0.2012-391.8017H505.1441
				c-10.3383,0-18.7046-8.375-18.7046-18.7041s8.3663-18.7041,18.7046-18.7041h447.0274l0.2373,429.1919
				c0,10.3291-8.3661,18.7036-18.6856,18.7124C933.7057,499.4126,933.7057,499.4126,933.7057,499.4126L933.7057,499.4126z"/>
		</g>
		<g>
			<path fill="#5C524C" d="M757.024,343.0971c-49.664,0-90.0849-40.4121-90.1406-90.0849
				c0.0557-49.6997,40.4766-90.1026,90.1406-90.1026c49.6817,0,90.085,40.4302,90.085,90.1216
				C847.1089,302.6943,806.7057,343.0971,757.024,343.0971L757.024,343.0971z M757.024,200.3164
				c-29.042,0-52.7139,23.6357-52.7324,52.6958c0.0185,29.0337,23.6904,52.6772,52.7324,52.6772s52.6768-23.626,52.6768-52.6582
				C809.7008,223.9609,786.066,200.3164,757.024,200.3164L757.024,200.3164z"/>
		</g>
		<g>
			<polygon fill="#5C524C" points="757.6266,278.8403 731.1783,252.3916 983.5514,0 1009.9996,26.4482 757.6266,278.8403 			"/>
		</g>
		<g>
			<polygon fill="#5C524C" points="435.8077,827.8247 409.3604,801.3764 724.8766,485.8598 751.3258,512.3081 435.8077,827.8247 			
				"/>
		</g>
		<g>
			<polygon fill="#5C524C" points="284.3512,676.3862 257.9039,649.938 573.4381,334.458 599.8863,360.9062 284.3512,676.3862 			
				"/>
		</g>
		<g>
			<polygon fill="#5C524C" points="208.6236,600.6762 182.1749,574.228 497.6915,258.7109 524.1402,285.1596 208.6236,600.6762 			
				"/>
		</g>
		<g>
			<g>
				<polygon fill="#5C524C" points="423.1685,688.9897 396.7203,662.5415 649.1119,410.1679 675.5601,436.6162 423.1685,688.9897 
									"/>
			</g>
			<g>
				<polygon fill="#5C524C" points="360.0802,752.0961 333.6314,725.6108 358.8741,700.4048 385.3224,726.854 360.0802,752.0961 
									"/>
			</g>
			<g>
				<line fill="none" x1="425.3785" y1="649.2983" x2="425.3785" y2="649.2983"/>
			</g>
		</g>
	</g>
</g>
</svg>
