<?xml version="1.0" encoding="utf-8"?>
<!-- Generator: Adobe Illustrator 17.1.0, SVG Export Plug-In . SVG Version: 6.00 Build 0)  -->
<!DOCTYPE svg PUBLIC "-//W3C//DTD SVG 1.1//EN" "http://www.w3.org/Graphics/SVG/1.1/DTD/svg11.dtd">
<svg version="1.1" id="megaphone" xmlns="http://www.w3.org/2000/svg" xmlns:xlink="http://www.w3.org/1999/xlink" x="0px" y="0px"
	 viewBox="0 0 1010 898.2769" enable-background="new 0 0 1010 898.2769" xml:space="preserve">
<g>
	<g id="megaphone-megaphone">
		<g>
			<path fill="#5C524C" d="M286.9766,898.2769c-3.1382,0-6.2759-0.8086-9.1016-2.4219c-5.729-3.2637-9.2617-9.3613-9.2617-15.9434
				V540.3111c0-10.1504,8.2221-18.3643,18.3633-18.3643c10.1411,0,18.3637,8.2139,18.3637,18.3643v307.4111l92.7242-54.7686
				V540.3111c0-10.1504,8.2221-18.3643,18.3632-18.3643c10.1416,0,18.3633,8.2139,18.3633,18.3643v263.1162
				c0,6.4922-3.4341,12.5166-9.0205,15.8173l-129.4502,76.4678C293.4419,897.4341,290.2046,898.2769,286.9766,898.2769
				L286.9766,898.2769z"/>
		</g>
		<g>
			<polygon fill="#5C524C" points="104.0757,484.0181 0,484.0181 0,243.3906 104.0757,243.3906 104.0757,280.1177 36.7271,280.1177 
				36.7271,447.2905 104.0757,447.2905 104.0757,484.0181 			"/>
		</g>
		<g>
			<polygon fill="#5C524C" points="1010,457.5493 922.2344,457.5493 922.2344,420.8218 973.2734,420.8218 973.2734,306.6406 
				922.2344,306.6406 922.2344,269.9131 1010,269.9131 1010,457.5493 			"/>
		</g>
		<g>
			<path fill="#5C524C" d="M920.0459,727.3911h-28.8184c-4.0693,0-8.0166-1.3642-11.2431-3.8387L661.9873,554.7652H114.2617
				c-10.1411,0-18.3638-8.2139-18.3638-18.3643V191.0513c0-10.1411,8.2227-18.3633,18.3638-18.3633h547.7256L879.9844,3.8467
				C883.2109,1.354,887.1582,0,891.2275,0h28.8184c10.1514,0,18.3643,8.2222,18.3643,18.3633v690.6636
				C938.4102,719.1773,930.1973,727.3911,920.0459,727.3911L920.0459,727.3911z M897.5039,690.6626h4.1797V36.7276h-4.1797
				L679.5068,205.5689c-3.208,2.4931-7.1718,3.8466-11.2431,3.8466H132.625v308.6221h535.6387
				c4.0714,0,8.0351,1.3633,11.2431,3.8379L897.5039,690.6626L897.5039,690.6626z"/>
		</g>
		<g>
			<path fill="#5C524C" d="M657.7197,554.7652c-10.1512,0-18.3642-8.2139-18.3642-18.3643V191.0513
				c0-10.1411,8.213-18.3633,18.3642-18.3633c10.1494,0,18.3643,8.2222,18.3643,18.3633v345.3496
				C676.084,546.5513,667.8691,554.7652,657.7197,554.7652L657.7197,554.7652z"/>
		</g>
		<g>
			<path fill="#5C524C" d="M590.4697,502.8296h-36.7265V466.104h36.7265V502.8296L590.4697,502.8296z M590.4697,411.0122h-36.7265
				v-36.7275h36.7265V411.0122L590.4697,411.0122z M590.4697,319.1939h-36.7265v-36.7276h36.7265V319.1939L590.4697,319.1939z
				 M590.4697,227.376h-36.7265v-36.3247h36.7265V227.376L590.4697,227.376z"/>
		</g>
		<g>
			<polygon fill="#5C524C" points="517.0049,536.4009 480.2793,536.4009 480.2793,191.0513 517.0049,191.0513 517.0049,536.4009 			
				"/>
		</g>
	</g>
</g>
</svg>
