<?xml version="1.0" encoding="utf-8"?>
<!-- Generator: Adobe Illustrator 17.1.0, SVG Export Plug-In . SVG Version: 6.00 Build 0)  -->
<!DOCTYPE svg PUBLIC "-//W3C//DTD SVG 1.1//EN" "http://www.w3.org/Graphics/SVG/1.1/DTD/svg11.dtd">
<svg version="1.1" id="receipt" xmlns="http://www.w3.org/2000/svg" xmlns:xlink="http://www.w3.org/1999/xlink" x="0px" y="0px"
	 viewBox="0 0 718.002 1010.0001" enable-background="new 0 0 718.002 1010.0001" xml:space="preserve">
<g>
	<g id="receipt-receipt">
		<g>
			<path fill="#5C524C" d="M18.3643,1009.9961c-2.3677,0-4.7529-0.4658-7.0215-1.3984C4.4746,1005.7656,0,999.0576,0,991.6348
				V18.3633C0,8.2139,8.2232,0,18.3643,0h681.2754c10.1308,0,18.3623,8.2139,18.3623,18.3633v973.2715
				c0,7.4228-4.4639,14.1308-11.333,16.9629c-6.9043,2.8339-14.7774,1.2558-20.0127-3.9795l-62.8916-62.9102l-45.6934,60.9365
				c-6.9219,9.2539-22.4512,9.2539-29.374,0l-45.6934-60.9365l-62.9101,62.9102c-3.7471,3.7646-8.8213,5.8094-14.292,5.3066
				c-5.3076-0.3584-10.2031-3.0127-13.3955-7.2803l-45.6582-60.9365l-62.8907,62.9102c-3.7573,3.7646-8.9126,5.8094-14.2836,5.3066
				c-5.3169-0.3584-10.1949-3.0127-13.396-7.2803l-45.6846-60.9365l-62.8911,62.9102c-3.7564,3.7646-8.8765,5.8094-14.2827,5.3066
				c-5.3091-0.3584-10.1958-3.0127-13.3877-7.2803L94.2119,941.708l-62.8559,62.9102
				C27.8418,1008.1309,23.1431,1009.9961,18.3643,1009.9961L18.3643,1009.9961z M96.1934,895.3682
				c0.4306,0,0.8603,0.037,1.2993,0.0713c5.3091,0.3603,10.1953,3.0146,13.3877,7.2832l45.7197,60.9365l62.9004-62.9102
				c3.7661-3.7676,9.0923-5.7383,14.2837-5.3095c5.3169,0.3603,10.1948,3.0146,13.396,7.2832l45.6846,60.9365l62.8911-62.9102
				c3.7563-3.7676,9.0469-5.7383,14.2842-5.3095c5.3154,0.3603,10.1943,3.0146,13.3867,7.2832l45.6758,60.9365l62.9072-62.9102
				c3.7676-3.7676,9.0205-5.7383,14.2939-5.3095c5.3077,0.3603,10.1846,3.0146,13.377,7.2832l43.7041,58.2822l43.7021-58.2822
				c3.1924-4.2686,8.0704-6.9229,13.378-7.2832c5.2363-0.5,10.5459,1.5419,14.2929,5.3095l46.5186,46.5166V36.7271H36.7271v910.5385
				l46.4736-46.5166C86.6616,897.3047,91.3423,895.3682,96.1934,895.3682L96.1934,895.3682z"/>
		</g>
		<g>
			<polygon fill="#5C524C" points="582.8584,635.9863 485.5196,635.9863 485.5196,599.2578 582.8584,599.2578 582.8584,635.9863 			
				"/>
		</g>
		<g>
			<polygon fill="#5C524C" points="582.8584,733.291 485.5196,733.291 485.5196,696.5625 582.8584,696.5625 582.8584,733.291 			"/>
		</g>
		<g>
			<polygon fill="#5C524C" points="597.3496,194.5195 120.6533,194.5195 120.6533,157.793 597.3496,157.793 597.3496,194.5195 			
				"/>
		</g>
		<g>
			<polygon fill="#5C524C" points="582.8584,343.9912 485.5196,343.9912 485.5196,307.2646 582.8584,307.2646 582.8584,343.9912 			
				"/>
		</g>
		<g>
			<polygon fill="#5C524C" points="582.8584,441.314 485.5196,441.314 485.5196,404.5869 582.8584,404.5869 582.8584,441.314 			"/>
		</g>
		<g>
			<polygon fill="#5C524C" points="582.8584,538.6445 485.5196,538.6445 485.5196,501.9272 582.8584,501.9272 582.8584,538.6445 			
				"/>
		</g>
		<g>
			<polygon fill="#5C524C" points="388.2149,343.9912 115.6861,343.9912 115.6861,307.2646 388.2149,307.2646 388.2149,343.9912 			
				"/>
		</g>
		<g>
			<polygon fill="#5C524C" points="388.2149,441.314 115.6861,441.314 115.6861,404.5869 388.2149,404.5869 388.2149,441.314 			"/>
		</g>
		<g>
			<polygon fill="#5C524C" points="388.2149,538.6445 115.6861,538.6445 115.6861,501.9272 388.2149,501.9272 388.2149,538.6445 			
				"/>
		</g>
		<g>
			<polygon fill="#5C524C" points="388.2149,635.9863 115.6861,635.9863 115.6861,599.2578 388.2149,599.2578 388.2149,635.9863 			
				"/>
		</g>
		<g>
			<polygon fill="#5C524C" points="388.2149,733.291 115.6861,733.291 115.6861,696.5625 388.2149,696.5625 388.2149,733.291 			"/>
		</g>
	</g>
</g>
</svg>
