<?xml version="1.0" encoding="utf-8"?>
<!-- Generator: Adobe Illustrator 17.1.0, SVG Export Plug-In . SVG Version: 6.00 Build 0)  -->
<!DOCTYPE svg PUBLIC "-//W3C//DTD SVG 1.1//EN" "http://www.w3.org/Graphics/SVG/1.1/DTD/svg11.dtd">
<svg version="1.1" id="returns-package" xmlns="http://www.w3.org/2000/svg" xmlns:xlink="http://www.w3.org/1999/xlink" x="0px"
	 y="0px" viewBox="0 0 1010 937.9632" enable-background="new 0 0 1010 937.9632" xml:space="preserve">
<g>
	<g id="returns-package-returns-package">
		<g>
			<g>
				<path fill="#5C524C" d="M991.2949,145.5038H18.7036c-6.9043,0-13.2427-3.7993-16.4941-9.8814
					c-3.251-6.082-2.8858-13.4619,0.9321-19.1968L75.1982,8.3675c3.4703-5.205,9.316-8.3286,15.5625-8.3286h828.4795
					c6.2461,0,12.0909,3.1236,15.5616,8.3286l72.0576,108.0581c3.8174,5.7349,4.1816,13.1148,0.9306,19.1968
					C1004.5381,141.7045,998.2002,145.5038,991.2949,145.5038L991.2949,145.5038z M53.6631,108.097h902.6728l-47.1064-70.6504
					h-808.46L53.6631,108.097L53.6631,108.097z"/>
			</g>
			<g>
				<path fill="#5C524C" d="M991.2949,937.9632H18.7036C8.3657,937.9632,0,929.599,0,919.2601V126.8002
					c0-10.3384,8.3657-18.7032,18.7036-18.7032s18.7036,8.3648,18.7036,18.7032v773.7568h935.1866V126.8002
					c0-10.3384,8.3642-18.7032,18.701-18.7032c10.3399,0,18.7051,8.3648,18.7051,18.7032v792.4599
					C1010,929.599,1001.6348,937.9632,991.2949,937.9632L991.2949,937.9632z"/>
			</g>
			<g>
				<path fill="#5C524C" d="M342.8945,415.6664H90.7607c-10.3388,0-18.7041-8.3648-18.7041-18.7032v-198.124
					c0-10.3384,8.3653-18.7046,18.7041-18.7046h252.1338c10.3389,0,18.7046,8.3662,18.7046,18.7046v198.124
					C361.5991,407.3016,353.2334,415.6664,342.8945,415.6664L342.8945,415.6664z M109.4639,378.2587h214.7275V217.5423H109.4639
					V378.2587L109.4639,378.2587z"/>
			</g>
			<g>
				<polygon fill="#5C524C" points="289.1948,289.5809 144.4424,289.5809 144.4424,252.1732 289.1948,252.1732 289.1948,289.5809 
									"/>
			</g>
			<g>
				<polygon fill="#5C524C" points="289.1948,343.6102 252.4995,343.6102 252.4995,306.2025 289.1948,306.2025 289.1948,343.6102 
									"/>
			</g>
			<g>
				<polygon fill="#5C524C" points="216.1333,343.6102 142.7437,343.6102 142.7437,306.2025 216.1333,306.2025 216.1333,343.6102 
									"/>
			</g>
			<g>
				<path fill="#5C524C" d="M414.9336,145.5038c-1.023,0-2.0645-0.0733-3.105-0.2554c-10.1743-1.6982-17.06-11.3423-15.3608-21.5347
					l18.0459-108.0581c1.6987-10.1738,11.3423-17.206,21.5346-15.3613c10.1739,1.6982,17.0596,11.3433,15.3614,21.5347
					l-18.0464,108.0581C431.8286,139.0194,423.9199,145.5038,414.9336,145.5038L414.9336,145.5038z"/>
			</g>
			<g>
				<path fill="#5C524C" d="M595.0664,145.5038c-8.9853,0-16.8945-6.4844-18.4297-15.6167L558.5908,21.829
					c-1.7003-10.1914,5.1865-19.8365,15.3613-21.5347c10.1915-1.8257,19.8165,5.1875,21.5352,15.3613l18.0459,108.0581
					c1.6973,10.1924-5.1885,19.8365-15.3613,21.5347C597.1299,145.4305,596.0889,145.5038,595.0664,145.5038L595.0664,145.5038z"/>
			</g>
			<g>
				<path fill="#5C524C" d="M580.709,527.7787l-39.6895-19.8545L505,525.9339l-36.0195-18.0097l-39.69,19.8545l-33.0791-33.0059
					V108.097h217.5777v386.6758L580.709,527.7787L580.709,527.7787z M468.9805,466.097L505,484.1068l36.0195-18.0098
					l32.3467,16.1641l3.0147-3.0127V145.5038H433.6191v333.7446l3.0137,3.0127L468.9805,466.097L468.9805,466.097z"/>
			</g>
		</g>
		<g>
			<g>
				<path fill="#5C524C" d="M318.9487,686.3401c-4.7851,0-9.5708-1.8262-13.2236-5.4785l-70.8516-70.8877
					c-7.3061-7.3076-7.3061-19.1416,0-26.4492l70.8516-70.8701c7.3062-7.3057,19.1426-7.3057,26.4482,0
					c7.3062,7.3066,7.3062,19.1425,0,26.4482l-57.6274,57.6465l57.6274,57.664c7.3062,7.3057,7.3062,19.1416,0,26.4483
					C328.5205,684.514,323.7349,686.3401,318.9487,686.3401L318.9487,686.3401z"/>
			</g>
			<g>
				<path fill="#5C524C" d="M726.4668,828.0795H549.293c-10.338,0-18.7022-8.3653-18.7022-18.7032s8.3643-18.7041,18.7022-18.7041
					h177.1738c9.2256,0,16.7324-7.4892,16.7324-16.7129V632.183c0-9.2227-7.5068-16.7305-16.7324-16.7305H248.0981
					c-10.3378,0-18.7041-8.3652-18.7041-18.7031c0-10.3389,8.3663-18.7041,18.7041-18.7041h478.3687
					c29.8457,0,54.1387,24.2939,54.1387,54.1377v141.7763C780.6055,803.805,756.3125,828.0795,726.4668,828.0795L726.4668,828.0795z
					"/>
			</g>
		</g>
	</g>
</g>
</svg>
