<?xml version="1.0" encoding="utf-8"?>
<!-- Generator: Adobe Illustrator 17.1.0, SVG Export Plug-In . SVG Version: 6.00 Build 0)  -->
<!DOCTYPE svg PUBLIC "-//W3C//DTD SVG 1.1//EN" "http://www.w3.org/Graphics/SVG/1.1/DTD/svg11.dtd">
<svg version="1.1" id="ribbon-banner" xmlns="http://www.w3.org/2000/svg" xmlns:xlink="http://www.w3.org/1999/xlink" x="0px"
	 y="0px" viewBox="0 0 1010.0001 683.6871" enable-background="new 0 0 1010.0001 683.6871" xml:space="preserve">
<g>
	<g>
		<path fill="#5C524C" d="M504.9964,683.6871c-188.4961,0-341.8477-153.3526-341.8477-341.8399
			C163.1487,153.3516,316.5003,0,504.9964,0c188.48,0,341.8325,153.3516,341.8325,341.8472
			C846.8289,530.3345,693.4764,683.6871,504.9964,683.6871L504.9964,683.6871z M504.9964,31.0772
			c-171.3643,0-310.7705,139.4131-310.7705,310.77c0,171.3408,139.4062,310.7627,310.7705,310.7627
			c171.3481,0,310.7554-139.4219,310.7554-310.7627C815.7518,170.4903,676.3445,31.0772,504.9964,31.0772L504.9964,31.0772z"/>
	</g>
	<g>
		<path fill="#5C524C" d="M207.7308,502.4136H15.5325c-5.645,0-10.8496-3.0644-13.5806-7.9961
			c-2.747-4.9316-2.58-10.9717,0.4092-15.7666l85.4927-136.8037L2.3611,205.0435c-2.9892-4.7881-3.1562-10.8272-0.4092-15.7666
			c2.731-4.9395,7.9356-8.0039,13.5806-8.0039h192.1983c8.5737,0,15.539,6.957,15.539,15.5381
			c0,8.581-6.9653,15.5381-15.539,15.5381H43.575l75.7808,121.2656c3.1562,5.0381,3.1562,11.4267,0,16.4648L43.575,471.3374
			h164.1558c8.5737,0,15.539,6.9649,15.539,15.5381C223.2698,495.4644,216.3045,502.4136,207.7308,502.4136L207.7308,502.4136z"/>
	</g>
	<g>
		<path fill="#5C524C" d="M994.4607,502.4136H800.5018c-8.5879,0-15.5391-6.9492-15.5391-15.5381
			c0-8.5732,6.9512-15.5381,15.5391-15.5381h165.916l-75.7803-121.2578c-3.1563-5.0381-3.1563-11.4267,0-16.4648l75.7803-121.2656
			h-165.916c-8.5879,0-15.5391-6.9571-15.5391-15.5381c0-8.5811,6.9512-15.5381,15.5391-15.5381h193.9589
			c5.6446,0,10.8496,3.0644,13.5957,8.0039c2.7305,4.9394,2.5801,10.9785-0.4257,15.7666l-85.4913,136.8037l85.4913,136.8037
			c3.0058,4.7949,3.1562,10.835,0.4257,15.7666C1005.3103,499.3492,1000.1053,502.4136,994.4607,502.4136L994.4607,502.4136z"/>
	</g>
</g>
</svg>
