<?xml version="1.0" encoding="utf-8"?>
<!-- Generator: Adobe Illustrator 17.1.0, SVG Export Plug-In . SVG Version: 6.00 Build 0)  -->
<!DOCTYPE svg PUBLIC "-//W3C//DTD SVG 1.1//EN" "http://www.w3.org/Graphics/SVG/1.1/DTD/svg11.dtd">
<svg version="1.1" id="screen-shop" xmlns="http://www.w3.org/2000/svg" xmlns:xlink="http://www.w3.org/1999/xlink" x="0px"
	 y="0px" viewBox="0 0 1010 861.7696" enable-background="new 0 0 1010 861.7696" xml:space="preserve">
<g>
	<g id="screen-shop-screen-shop">
		<g>
			<g>
				<path fill="#5C524C" d="M937.8906,713.5909H72.1421C32.355,713.5909,0,681.2354,0,641.4483V72.126C0,32.3555,32.355,0,72.1421,0
					h865.7485C977.6445,0,1010,32.3555,1010,72.126v569.3223C1010,681.2354,977.6445,713.5909,937.8906,713.5909L937.8906,713.5909z
					 M72.1421,36.0718c-19.8853,0-36.0703,16.1773-36.0703,36.0542v569.3223c0,19.8857,16.185,36.0712,36.0703,36.0712h865.7485
					c19.8682,0,36.0371-16.1855,36.0371-36.0712V72.126c0-19.8769-16.1689-36.0542-36.0371-36.0542H72.1421L72.1421,36.0718z"/>
			</g>
			<g>
				<path fill="#5C524C" d="M970.8281,141.9434H39.2056c-9.9678,0-18.0352-8.0752-18.0352-18.0357
					c0-9.9599,8.0674-18.0356,18.0352-18.0356h931.6224c9.9678,0,18.0352,8.0757,18.0352,18.0356
					C988.8633,133.8682,980.7959,141.9434,970.8281,141.9434L970.8281,141.9434z"/>
			</g>
			<g>
				<path fill="#5C524C" d="M970.8281,607.7188H39.2056c-9.9678,0-18.0352-8.0664-18.0352-18.0352
					c0-9.9697,8.0674-18.0351,18.0352-18.0351h931.6224c9.9678,0,18.0352,8.0654,18.0352,18.0351
					C988.8633,599.6524,980.7959,607.7188,970.8281,607.7188L970.8281,607.7188z"/>
			</g>
			<g>
				<path fill="#5C524C" d="M631.25,861.7696H378.7852c-9.9522,0-18.0362-8.0674-18.0362-18.0371l-0.0351-148.1768h36.0713
					l0.0351,130.1416h216.3936V695.5557h36.0714v148.1768C649.2852,853.7022,641.2178,861.7696,631.25,861.7696L631.25,861.7696z"/>
			</g>
			<g>
				<path fill="#5C524C" d="M674.4014,861.7696H335.6323c-9.9677,0-18.0351-8.0674-18.0351-18.0371
					c0-9.9678,8.0674-18.0352,18.0351-18.0352h338.7691c9.9697,0,18.0351,8.0674,18.0351,18.0352
					C692.4365,853.7022,684.3711,861.7696,674.4014,861.7696L674.4014,861.7696z"/>
			</g>
			<g>
				<line fill="none" x1="505" y1="70.7871" x2="505" y2="70.7871"/>
			</g>
		</g>
		<g>
			<g>
				<polygon fill="#5C524C" points="967.376,342.5909 931.3047,342.5909 931.3047,117.2676 967.376,117.2676 967.376,342.5909 				
					"/>
			</g>
			<g>
				<g>
					<path fill="#5C524C" d="M880.8955,447.8633c-31.7197,0-59.8125-18.4668-74.9072-46.0664
						c-15.1123,27.5996-43.1885,46.0664-74.8379,46.0664c-31.7041,0-59.7783-18.4844-74.8731-46.1015
						c-15.0761,27.6171-43.1523,46.1015-74.8378,46.1015c-31.7032,0-59.7784-18.4761-74.8545-46.0752
						c-15.0772,27.5991-43.1519,46.0752-74.8208,46.0752c-31.6851,0-59.7779-18.4575-74.8726-46.04
						c-15.0937,27.5825-43.1699,46.04-74.8379,46.04c-31.7026,0-59.7773-18.4761-74.8545-46.0835
						c-15.0947,27.6074-43.1875,46.0835-74.8906,46.0835c-46.3569,0-86.585-38.581-89.6504-86.0034l-0.0352-37.3047h924.753
						l-0.1406,36.2119C964.082,410.084,926.1611,447.8633,880.8955,447.8633L880.8955,447.8633z M830.5576,360.6265
						c2.3428,28.7798,24.2705,51.1655,50.338,51.1655c25.9805,0,47.8545-22.3857,50.2324-51.1655H830.5576L830.5576,360.6265z
						 M680.8477,360.6265c2.3779,28.7798,24.289,51.1655,50.3027,51.1655c25.9785,0,47.8896-22.3857,50.3213-51.1655H680.8477
						L680.8477,360.6265z M531.1729,360.6265c2.3417,28.7798,24.2353,51.1655,50.2666,51.1655
						c25.9969,0,47.8906-22.3857,50.2685-51.1655H531.1729L531.1729,360.6265z M381.4263,360.6265
						c2.3779,28.7798,24.2885,51.1655,50.3379,51.1655c25.997,0,47.8906-22.3857,50.2675-51.1655H381.4263L381.4263,360.6265z
						 M231.7861,360.6265c2.3433,28.7798,24.2359,51.1655,50.2676,51.1655c26.0151,0,47.9258-22.3857,50.3032-51.1655H231.7861
						L231.7861,360.6265z M78.6948,360.6265v0.0703c1.7969,27.1597,26.3667,51.0952,53.6138,51.0952
						c26.0493,0,47.96-22.3857,50.3379-51.1655H78.6948L78.6948,360.6265z"/>
				</g>
				<g>
					<polygon fill="#5C524C" points="222.0991,359.9395 186.0278,359.9395 186.0278,117.2676 222.0991,117.2676 222.0991,359.9395 
											"/>
				</g>
				<g>
					<polygon fill="#5C524C" points="372.9375,359.9395 336.8657,359.9395 336.8657,117.2676 372.9375,117.2676 372.9375,359.9395 
											"/>
				</g>
				<g>
					<polygon fill="#5C524C" points="674.6475,359.9395 638.5771,359.9395 638.5771,117.2676 674.6475,117.2676 674.6475,359.9395 
											"/>
				</g>
				<g>
					<polygon fill="#5C524C" points="825.4854,359.9395 789.4141,359.9395 789.4141,117.2676 825.4854,117.2676 825.4854,359.9395 
											"/>
				</g>
				<g>
					<polygon fill="#5C524C" points="523.0352,359.9395 486.9639,359.9395 486.9639,117.2676 523.0352,117.2676 523.0352,359.9395 
											"/>
				</g>
				<g>
					<polygon fill="#5C524C" points="78.73,342.5909 42.6582,342.5909 42.6582,117.2676 78.73,117.2676 78.73,342.5909 					"/>
				</g>
			</g>
		</g>
	</g>
</g>
</svg>
