<?xml version="1.0" encoding="utf-8"?>
<!-- Generator: Adobe Illustrator 17.1.0, SVG Export Plug-In . SVG Version: 6.00 Build 0)  -->
<!DOCTYPE svg PUBLIC "-//W3C//DTD SVG 1.1//EN" "http://www.w3.org/Graphics/SVG/1.1/DTD/svg11.dtd">
<svg version="1.1" id="shopping-bag" xmlns="http://www.w3.org/2000/svg" xmlns:xlink="http://www.w3.org/1999/xlink" x="0px"
	 y="0px" viewBox="0 0 1009.9998 1009.9615" enable-background="new 0 0 1009.9998 1009.9615" xml:space="preserve">
<g>
	<g id="shopping-bag-shopping-bag">
		<g>
			<path fill="#5C524C" d="M991.6356,1009.9615H18.3637c-5.8999,0-11.4409-2.833-14.9014-7.6387
				c-3.4438-4.7695-4.3936-10.9395-2.5112-16.5342L212.5199,351.084c2.4927-7.4961,9.5039-12.5527,17.4126-12.5527h550.1182
				c7.9072,0,14.9189,5.0566,17.4121,12.5527l211.5859,634.7046c1.8828,5.5947,0.9317,11.7647-2.5117,16.5342
				C1003.077,1007.1285,997.5351,1009.9615,991.6356,1009.9615L991.6356,1009.9615z M43.8461,973.2359h922.3081l-199.3389-597.979
				H243.1669L43.8461,973.2359L43.8461,973.2359z"/>
		</g>
		<g>
			<path fill="#5C524C" d="M683.787,459.8623c-10.1494,0-18.3613-8.2216-18.3613-18.3623V153.5743
				c0-96.5757-75.749-116.8487-139.3018-116.8487h-42.3022c-74.9585,0-162.5054,30.6021-162.5054,116.8487V441.5
				c0,10.1407-8.2129,18.3623-18.3628,18.3623c-10.1494,0-18.3623-8.2216-18.3623-18.3623V153.5743
				C284.5912,60.2803,362.7943,0,483.8217,0h42.3022c111.8643,0,176.0264,55.9766,176.0264,153.5743V441.5
				C702.1503,451.6407,693.9374,459.8623,683.787,459.8623L683.787,459.8623z"/>
		</g>
		<g>
			<path fill="#5C524C" d="M853.0341,883.0171H176.0272c-10.1499,0-18.3637-8.2304-18.3637-18.3623
				c0-10.1328,8.2138-18.3633,18.3637-18.3633h677.0069c10.1513,0,18.3633,8.2305,18.3633,18.3633
				C871.3974,874.7867,863.1854,883.0171,853.0341,883.0171L853.0341,883.0171z"/>
		</g>
		<g>
			<path fill="#5C524C" d="M810.7138,756.0728H218.33c-10.1504,0-18.3633-8.2129-18.3633-18.3623
				c0-10.1504,8.2129-18.3643,18.3633-18.3643h592.3838c10.1494,0,18.3642,8.2139,18.3642,18.3643
				C829.078,747.8599,820.8632,756.0728,810.7138,756.0728L810.7138,756.0728z"/>
		</g>
		<g>
			<path fill="#5C524C" d="M768.4102,629.1285H260.6508c-10.1499,0-18.3628-8.2315-18.3628-18.3633
				c0-10.1319,8.2129-18.3633,18.3628-18.3633h507.7593c10.1512,0,18.3632,8.2314,18.3632,18.3633
				C786.7733,620.897,778.5614,629.1285,768.4102,629.1285L768.4102,629.1285z"/>
		</g>
	</g>
</g>
</svg>
