<?xml version="1.0" encoding="utf-8"?>
<!-- Generator: Adobe Illustrator 17.1.0, SVG Export Plug-In . SVG Version: 6.00 Build 0)  -->
<!DOCTYPE svg PUBLIC "-//W3C//DTD SVG 1.1//EN" "http://www.w3.org/Graphics/SVG/1.1/DTD/svg11.dtd">
<svg version="1.1" id="shop" xmlns="http://www.w3.org/2000/svg" xmlns:xlink="http://www.w3.org/1999/xlink" x="0px" y="0px"
	 viewBox="0 0 940.253 1010" enable-background="new 0 0 940.253 1010" xml:space="preserve">
<g>
	<g id="shop-shop">
		<g>
			<g>
				<path fill="none" d="M845.2129,563.5459c-35.5088,0-65.4512-30.0488-68.1992-68.4268l-1.3369-18.6347h139.002l-1.3037,18.6347
					C910.627,533.4971,880.6846,563.5459,845.2129,563.5459L845.2129,563.5459z"/>
			</g>
			<g>
				<rect x="771.9424" y="251.6016" fill="none" width="141.6074" height="224.8828"/>
			</g>
			<g>
				<rect x="621.4219" y="251.6016" fill="none" width="150.5205" height="224.8828"/>
			</g>
			<g>
				<path fill="none" d="M695.7842,563.5459c-35.4736,0-65.4141-30.0488-68.1797-68.4268l-1.3398-18.6347h139.0898l-1.3379,18.6699
					C761.1973,533.4971,731.2198,563.5459,695.7842,563.5459L695.7842,563.5459z"/>
			</g>
			<g>
				<rect x="470.126" y="251.6016" fill="none" width="151.2959" height="224.8828"/>
			</g>
			<g>
				<path fill="none" d="M546.4092,563.5459c-35.4932,0-65.4512-30.0654-68.1807-68.4268l-1.3222-18.6347h138.9843l-1.3378,18.6347
					C611.7686,533.4971,581.8623,563.5459,546.4092,563.5459L546.4092,563.5459z"/>
			</g>
			<g>
				<rect x="320.3272" y="251.6016" fill="none" width="149.7988" height="224.8828"/>
			</g>
			<g>
				<path fill="none" d="M397.0323,563.5459c-35.4908,0-65.4678-30.0488-68.2154-68.4268l-1.3208-18.6347h139.0366l-1.3213,18.6347
					C462.4112,533.4971,432.5044,563.5459,397.0323,563.5459L397.0323,563.5459z"/>
			</g>
			<g>
				<rect x="169.7715" y="251.6016" fill="none" width="150.5557" height="224.8828"/>
			</g>
			<g>
				<path fill="none" d="M247.6206,563.5459c-35.5073,0-65.4673-30.0654-68.1797-68.4268l-1.3203-18.6347h139.0537l-1.3383,18.6523
					C313.0357,533.4971,283.0757,563.5459,247.6206,563.5459L247.6206,563.5459z"/>
			</g>
			<g>
				<rect x="226.6436" y="18.0356" fill="none" width="486.9463" height="163.1314"/>
			</g>
			<g>
				<rect x="26.7193" y="251.6016" fill="none" width="143.0522" height="224.8828"/>
			</g>
			<g>
				<path fill="none" d="M98.21,563.5459c-36.3184,0-69.043-31.0693-71.4556-67.8452l-0.0351-19.2163h141.0444l-1.3389,18.6523
					C163.6597,533.4971,133.6826,563.5459,98.21,563.5459L98.21,563.5459z"/>
			</g>
			<g>
				<path fill="none" d="M557.0635,938.0156V640.8848h-173.875v297.1308H52.8032V551.1113L76,559.3359
					c7.9785,2.836,15.253,4.21,22.21,4.21c24.3584,0,47.0972-14.3555,59.3555-37.4277l15.3588-28.9209l15.3584,28.9384
					c12.2583,23.0547,34.9795,37.4102,59.3379,37.4102c24.3418,0,47.0625-14.3555,59.3208-37.4102l15.376-28.9033l15.3589,28.9033
					c12.2588,23.0547,35.0146,37.4102,59.356,37.4102c24.3227,0,47.0615-14.3555,59.3027-37.4102l15.3935-28.956l15.3594,28.956
					c12.2051,23.0547,34.9619,37.4102,59.3213,37.4102c24.3223,0,47.0781-14.3555,59.3027-37.4453l15.3564-28.9741l15.3594,28.9565
					c12.2597,23.1074,35.0136,37.4629,59.3564,37.4629c24.3408,0,47.0957-14.3555,59.3555-37.4277l15.3584-28.9209l15.3574,28.9384
					c12.2236,23.0547,34.9796,37.4102,59.3574,37.4102c5.9531,0,12.1533-1.1104,19.4434-3.5234l22.791-7.4678v385.4609H557.0635z"/>
			</g>
			<g>
				<rect x="383.1885" y="640.8848" fill="none" width="173.875" height="297.1308"/>
			</g>
			<g>
				<rect x="18.0352" y="938.0156" fill="none" width="904.1806" height="53.9483"/>
			</g>
			<g>
				<rect x="635.3184" y="643.9482" fill="none" width="191.2588" height="208.9795"/>
			</g>
			<g>
				<rect x="113.6739" y="642.998" fill="none" width="191.2597" height="210.8975"/>
			</g>
		</g>
		<g>
			<g>
				<polygon fill="#5C524C" points="70.8399,931.0225 34.7681,931.0225 34.7681,545.7041 70.8399,545.7041 70.8399,931.0225 				"/>
			</g>
			<g>
				<polygon fill="#5C524C" points="905.4834,931.0225 869.4131,931.0225 869.4131,545.7041 905.4834,545.7041 905.4834,931.0225 
									"/>
			</g>
			<g>
				<polygon fill="#5C524C" points="575.0996,952.2119 539.0274,952.2119 539.0274,658.9199 401.2241,658.9199 401.2241,952.2119 
					365.1524,952.2119 365.1524,622.8486 575.0996,622.8486 575.0996,952.2119 				"/>
			</g>
			<g>
				<polygon fill="#5C524C" points="522.8594,805.7422 486.7881,805.7422 486.7881,772.6641 522.8594,772.6641 522.8594,805.7422 
									"/>
			</g>
			<g>
				<g>
					<polygon fill="#5C524C" points="931.586,476.4844 895.5156,476.4844 895.5156,269.6377 44.7544,269.6377 44.7544,476.4844 
						8.6826,476.4844 8.6826,233.5659 931.586,233.5659 931.586,476.4844 					"/>
				</g>
				<g>
					<path fill="#5C524C" d="M845.2129,581.582c-31.6348,0-59.6572-18.4238-74.7148-45.9521
						c-15.0957,27.5283-43.1162,45.9521-74.7139,45.9521c-31.6152,0-59.6377-18.4413-74.6982-45.9883
						c-15.0596,27.5469-43.0635,45.9883-74.6768,45.9883c-31.6348,0-59.6387-18.4238-74.6982-45.9521
						c-15.0767,27.5283-43.0992,45.9521-74.6787,45.9521c-31.6158,0-59.6382-18.4238-74.7149-45.9355
						c-15.0937,27.5117-43.0981,45.9355-74.6968,45.9355c-31.6152,0-59.6377-18.4238-74.6963-45.9355
						c-15.0766,27.5117-43.0991,45.9355-74.7143,45.9355c-46.3042,0-86.4448-38.5381-89.4917-85.8813l-0.0357-37.2515H931.586
						l-0.1407,36.1587C928.292,543.8545,890.4239,581.582,845.2129,581.582L845.2129,581.582z M795.0684,494.5205
						c2.3604,28.6914,24.1826,50.9893,50.1445,50.9893c25.9072,0,47.7295-22.2979,50.126-50.9893H795.0684L795.0684,494.5205z
						 M645.6748,494.5205c2.378,28.6914,24.1817,50.9893,50.1094,50.9893c25.9258,0,47.7666-22.2979,50.1787-50.9893H645.6748
						L645.6748,494.5205z M496.2803,494.5205c2.3603,28.6914,24.1826,50.9893,50.1289,50.9893
						c25.9072,0,47.7109-22.2979,50.1074-50.9893H496.2803L496.2803,494.5205z M346.8701,494.5205
						c2.378,28.6914,24.2178,50.9893,50.1622,50.9893c25.9086,0,47.7133-22.2979,50.1259-50.9893H346.8701L346.8701,494.5205z
						 M197.4942,494.5205c2.3603,28.6914,24.1831,50.9893,50.1264,50.9893c25.9263,0,47.7491-22.2979,50.1617-50.9893H197.4942
						L197.4942,494.5205z M44.7544,494.5205v0.0171c1.7788,27.0981,26.2783,50.9722,53.4556,50.9722
						c25.9443,0,47.7842-22.2979,50.1797-50.9893H44.7544L44.7544,494.5205z"/>
				</g>
				<g>
					<polygon fill="#5C524C" points="187.8072,493.7983 151.7359,493.7983 151.7359,251.6016 187.8072,251.6016 187.8072,493.7983 
											"/>
				</g>
				<g>
					<polygon fill="#5C524C" points="338.3633,493.7983 302.2915,493.7983 302.2915,251.6016 338.3633,251.6016 338.3633,493.7983 
											"/>
				</g>
				<g>
					<polygon fill="#5C524C" points="639.4561,493.7983 603.3858,493.7983 603.3858,251.6016 639.4561,251.6016 639.4561,493.7983 
											"/>
				</g>
				<g>
					<polygon fill="#5C524C" points="789.9766,493.7983 753.9063,493.7983 753.9063,251.6016 789.9766,251.6016 789.9766,493.7983 
											"/>
				</g>
				<g>
					<polygon fill="#5C524C" points="488.1621,493.7983 452.0904,493.7983 452.0904,251.6016 488.1621,251.6016 488.1621,493.7983 
											"/>
				</g>
			</g>
			<g>
				<path fill="#5C524C" d="M940.253,1010H0v-90.0195h940.253V1010L940.253,1010z M36.0718,973.9287h868.1079v-17.8769H36.0718
					V973.9287L36.0718,973.9287z"/>
			</g>
			<g>
				<path fill="#5C524C" d="M844.6143,870.9629h-227.332V625.9131h227.332V870.9629L844.6143,870.9629z M653.3526,834.8916H808.541
					V661.9854H653.3526V834.8916L653.3526,834.8916z"/>
			</g>
			<g>
				<path fill="#5C524C" d="M322.9688,871.9316H95.6387V624.9629h227.3301V871.9316L322.9688,871.9316z M131.71,835.8604h155.188
					V661.0342H131.71V835.8604L131.71,835.8604z"/>
			</g>
		</g>
		<g>
			<g>
				<polygon fill="#5C524C" points="338.3633,260.0913 302.2915,260.0913 302.2915,191.9995 338.3633,191.9995 338.3633,260.0913 
									"/>
			</g>
			<g>
				<polygon fill="#5C524C" points="639.4561,282.231 603.3858,282.231 603.3858,191.9995 639.4561,191.9995 639.4561,282.231 				
					"/>
			</g>
			<g>
				<path fill="#5C524C" d="M713.5899,199.2031H226.6436c-9.9512,0-18.0352-8.0757-18.0352-18.0361V18.0356
					C208.6084,8.0757,216.6924,0,226.6436,0h486.9463c9.9697,0,18.0361,8.0757,18.0361,18.0356V181.167
					C731.626,191.1274,723.5596,199.2031,713.5899,199.2031L713.5899,199.2031z M244.6797,163.1318h450.876v-127.06h-450.876
					V163.1318L244.6797,163.1318z"/>
			</g>
		</g>
		<g>
			<polygon fill="#5C524C" points="654.8858,114.3965 285.3828,114.3965 285.3828,78.3252 654.8858,78.3252 654.8858,114.3965 			
				"/>
		</g>
		<g>
			<g>
				<path fill="#5C524C" d="M205.4199,811.9238c-4.6147,0-9.229-1.7607-12.7514-5.2842c-7.0454-7.0449-7.0454-18.458,0-25.5029
					l42.4468-42.4658c7.0278-7.0439,18.4589-7.0439,25.5039,0c7.0454,7.0283,7.0454,18.46,0,25.5039l-42.4473,42.4648
					C214.667,810.1631,210.0347,811.9238,205.4199,811.9238L205.4199,811.9238z"/>
			</g>
			<g>
				<path fill="#5C524C" d="M167.711,786.8262c-4.6153,0-9.2295-1.7617-12.752-5.2842c-7.0454-7.0449-7.0454-18.4766,0-25.5039
					l61.9448-61.9268c7.0454-7.0449,18.4585-7.0449,25.5035,0c7.0454,7.0439,7.0454,18.4756,0,25.5038l-61.9449,61.9268
					C176.94,785.0645,172.3252,786.8262,167.711,786.8262L167.711,786.8262z"/>
			</g>
		</g>
		<g>
			<g>
				<path fill="#5C524C" d="M731.4678,808.0664c-4.6162,0-9.2295-1.7607-12.752-5.2832c-7.0468-7.0273-7.0468-18.459,0-25.5039
					l42.4473-42.4648c7.0274-7.045,18.458-7.045,25.5039,0c7.0459,7.0459,7.0459,18.4589,0,25.5038l-42.4472,42.4648
					C740.7149,806.3057,736.083,808.0664,731.4678,808.0664L731.4678,808.0664z"/>
			</g>
			<g>
				<path fill="#5C524C" d="M690.7471,786.8262c-4.6152,0-9.2315-1.7617-12.752-5.2842c-7.0459-7.0449-7.0459-18.4766,0-25.5039
					l61.9444-61.9268c7.0459-7.0449,18.4579-7.0449,25.5038,0c7.0459,7.0439,7.0459,18.4756,0,25.5038l-61.9463,61.9268
					C699.9766,785.0645,695.3604,786.8262,690.7471,786.8262L690.7471,786.8262z"/>
			</g>
		</g>
	</g>
</g>
</svg>
