<?xml version="1.0" encoding="utf-8"?>
<!-- Generator: Adobe Illustrator 17.1.0, SVG Export Plug-In . SVG Version: 6.00 Build 0)  -->
<!DOCTYPE svg PUBLIC "-//W3C//DTD SVG 1.1//EN" "http://www.w3.org/Graphics/SVG/1.1/DTD/svg11.dtd">
<svg version="1.1" id="sign-open" xmlns="http://www.w3.org/2000/svg" xmlns:xlink="http://www.w3.org/1999/xlink" x="0px" y="0px"
	 viewBox="0 0 1010 905.8433" enable-background="new 0 0 1010 905.8433" xml:space="preserve">
<g>
	<g id="sign-open-sign-open">
		<g>
			<g>
				<path fill="#5C524C" d="M204.0439,381.9331c-4.6626,0-9.3252-1.7578-12.8935-5.2905
					c-7.2271-7.1201-7.2988-18.749-0.1792-25.9678l12.894-13.0727c7.1197-7.2271,18.7764-7.2989,25.9678-0.1802
					c7.2271,7.1201,7.2983,18.75,0.1787,25.9678l-12.894,13.0737C213.5308,380.1035,208.7788,381.9331,204.0439,381.9331
					L204.0439,381.9331z M255.6201,329.6397c-4.6626,0-9.3252-1.7666-12.9121-5.2994c-7.2085-7.1279-7.2803-18.749-0.1611-25.9677
					l12.9121-13.0728c7.1553-7.227,18.7583-7.2812,25.9853-0.1616c7.209,7.1289,7.2808,18.7485,0.1612,25.9678l-12.9112,13.0727
					C265.0894,327.8198,260.3545,329.6397,255.6201,329.6397L255.6201,329.6397z M307.2139,277.3457
					c-4.6626,0-9.3252-1.7563-12.8936-5.2895c-7.227-7.1197-7.2988-18.7495-0.1792-25.9673l12.8941-13.0738
					c7.1196-7.227,18.7763-7.2988,25.9677-0.1791c7.2271,7.1196,7.2984,18.7485,0.1787,25.9677l-12.894,13.0728
					C316.7007,275.5176,311.9487,277.3457,307.2139,277.3457L307.2139,277.3457z M358.79,225.0527
					c-4.6626,0-9.3252-1.7578-12.8935-5.2905c-7.2271-7.1186-7.2988-18.7485-0.1797-25.9663l12.8945-13.0737
					c7.1192-7.2276,18.7759-7.2988,25.9673-0.1792c7.2271,7.1196,7.2984,18.7485,0.1792,25.9663l-12.8935,13.0742
					C368.2773,223.2236,363.5244,225.0527,358.79,225.0527L358.79,225.0527z M410.3838,172.7505
					c-4.6626,0-9.3252-1.7568-12.8936-5.2905c-7.227-7.1187-7.2988-18.7486-0.1792-25.9663l12.8941-13.0743
					c7.1196-7.2265,18.7763-7.2983,25.9673-0.1787c7.2275,7.1202,7.2988,18.7486,0.1792,25.9678l-12.8941,13.0728
					C419.8706,170.9214,415.1187,172.7505,410.3838,172.7505L410.3838,172.7505z"/>
			</g>
		</g>
		<g>
			<g>
				<path fill="#5C524C" d="M805.9541,381.9331c-4.7344,0-9.4863-1.8296-13.0713-5.4697l-12.8936-13.0737
					c-7.1211-7.2178-7.0497-18.8477,0.1777-25.9678c7.1924-7.1187,18.8486-7.0469,25.9678,0.1802l12.8935,13.0727
					c7.1212,7.2188,7.0488,18.8477-0.1806,25.9678C815.2793,380.1753,810.6172,381.9331,805.9541,381.9331L805.9541,381.9331z
					 M754.3789,329.6397c-4.7344,0-9.4678-1.8199-13.0732-5.461l-12.912-13.0727c-7.1192-7.2193-7.0479-18.8389,0.1611-25.9678
					c7.2275-7.1196,18.8301-7.0654,25.9863,0.1616l12.912,13.0728c7.1182,7.2187,7.0469,18.8398-0.162,25.9677
					C763.7041,327.8731,759.042,329.6397,754.3789,329.6397L754.3789,329.6397z M702.7852,277.3457
					c-4.7334,0-9.4865-1.8281-13.0733-5.4692l-12.8936-13.0728c-7.1191-7.2192-7.0479-18.8481,0.1796-25.9677
					c7.1905-7.1197,18.8467-7.0479,25.9678,0.1791l12.8936,13.0738c7.1181,7.2178,7.0469,18.8476-0.1797,25.9673
					C712.1113,275.5894,707.4482,277.3457,702.7852,277.3457L702.7852,277.3457z M651.21,225.0527
					c-4.7335,0-9.4865-1.8291-13.0733-5.4692l-12.8936-13.0742c-7.1211-7.2178-7.0497-18.8467,0.1777-25.9663
					c7.1924-7.1196,18.8486-7.0484,25.9668,0.1792l12.8945,13.0737c7.1201,7.2178,7.049,18.8477-0.1777,25.9663
					C660.5361,223.2949,655.873,225.0527,651.21,225.0527L651.21,225.0527z M599.6143,172.7505
					c-4.7344,0-9.4844-1.8291-13.0713-5.4692l-12.8936-13.0728c-7.1211-7.2192-7.0498-18.8476,0.1777-25.9678
					c7.1924-7.1196,18.8672-7.0478,25.9678,0.1787l12.8936,13.0743c7.1211,7.2177,7.0488,18.8476-0.1778,25.9663
					C608.9395,170.9937,604.2773,172.7505,599.6143,172.7505L599.6143,172.7505z"/>
			</g>
		</g>
		<g>
			<g>
				<path fill="#5C524C" d="M908.2461,905.8433H101.7896C45.6577,905.8433,0,860.7241,0,805.2388V483.0142
					c0-55.4951,45.6577-100.6509,101.7896-100.6509h806.4565c56.1133,0,101.7539,45.1558,101.7539,100.6509v322.2246
					C1010,860.7241,964.3594,905.8433,908.2461,905.8433L908.2461,905.8433z M101.7896,419.0908
					c-35.8667,0-65.0625,28.6753-65.0625,63.9234v322.2246c0,35.2197,29.1958,63.8779,65.0625,63.8779h806.4565
					c35.8486,0,65.0273-28.6582,65.0273-63.8779V483.0142c0-35.2481-29.1787-63.9234-65.0273-63.9234H101.7896L101.7896,419.0908z"
					/>
			</g>
			<g>
				<path fill="#5C524C" d="M323.5518,645.4165c0,48.5283-39.3995,86.1514-90.2403,86.1514
					c-50.8227,0-90.2402-37.623-90.2402-86.1514c0-48.7607,39.4175-85.6494,90.2402-85.6494
					C284.1523,559.7671,323.5518,596.8892,323.5518,645.4165z M172.2666,645.4165c0,33.7324,27.9756,60.4355,61.2964,60.4355
					c33.3193,0,60.56-26.7032,60.56-60.4355c0-33.7139-27.2407-59.9326-60.56-59.9326
					C199.9922,585.4839,172.2666,611.7026,172.2666,645.4165z"/>
				<path fill="#5C524C" d="M428.21,560.4849c42.8066,0,67.3754,21.125,67.3754,57.997c0,38.3409-24.5688,60.667-67.3754,60.667
					h-39.1485v51.2002h-28.7109V560.4849H428.21z M389.0615,653.4331h37.9468c26.2725,0,41.085-11.1719,41.085-34.2178
					c0-22.3261-14.8125-32.996-41.085-32.996h-37.9468V653.4331z"/>
				<path fill="#5C524C" d="M558.9063,586.2193v45.8554h83.1748v25.7158h-83.1748v46.8419h95.8173v25.7167H530.1963V560.4849
					h121.6055v25.7344H558.9063z"/>
				<path fill="#5C524C" d="M815.3164,730.3491l-90.706-121.8027v121.8027h-28.71V560.4849h28.2246l91.1914,122.0537V560.4849
					h28.2275v169.8642H815.3164z"/>
			</g>
		</g>
		<g>
			<path fill="#5C524C" d="M505.0181,151.9395c-41.8921,0-75.9839-34.0826-75.9839-75.9654C429.0342,34.0825,463.126,0,505.0181,0
				s75.9829,34.0825,75.9829,75.9741C581.001,117.8569,546.9102,151.9395,505.0181,151.9395L505.0181,151.9395z M505.0181,36.7276
				c-21.6455,0-39.2564,17.6108-39.2564,39.2465c0,21.6368,17.6109,39.2378,39.2564,39.2378
				c21.645,0,39.2563-17.601,39.2563-39.2378C544.2744,54.3384,526.6631,36.7276,505.0181,36.7276L505.0181,36.7276z"/>
		</g>
	</g>
</g>
</svg>
