<?xml version="1.0" encoding="utf-8"?>
<!-- Generator: Adobe Illustrator 17.1.0, SVG Export Plug-In . SVG Version: 6.00 Build 0)  -->
<!DOCTYPE svg PUBLIC "-//W3C//DTD SVG 1.1//EN" "http://www.w3.org/Graphics/SVG/1.1/DTD/svg11.dtd">
<svg version="1.1" id="t-shirt" xmlns="http://www.w3.org/2000/svg" xmlns:xlink="http://www.w3.org/1999/xlink" x="0px" y="0px"
	 viewBox="0 0 1010.0001 909.1139" enable-background="new 0 0 1010.0001 909.1139" xml:space="preserve">
<g>
	<g id="t-shirt-t-shirt">
		<g>
			<path fill="#5C524C" d="M776.7821,909.1139H233.2333c-9.6162,0-17.4141-7.7871-17.4141-17.4121V377.8537l-80.5888,20.7969
				c-7.3887,1.9389-15.2119-1.2408-19.208-7.7798L2.5624,205.2555c-2.4658-4.0302-3.1895-8.8769-2.0078-13.4516
				c1.1914-4.5659,4.1758-8.46,8.2822-10.7813L324.6981,2.2687c4.4893-2.5508,9.8545-2.959,14.667-1.165
				c4.8213,1.8027,8.5957,5.6377,10.3223,10.4844c18.6211,52.3935,82.4941,88.9809,155.3115,88.9809
				s136.6573-36.5874,155.2783-88.9809c1.7178-4.8467,5.4922-8.6817,10.3213-10.4844c4.7959-1.8023,10.1709-1.3858,14.6602,1.165
				l315.8935,178.7539c4.1163,2.3213,7.1094,6.2154,8.2998,10.7813c1.1739,4.5747,0.4424,9.4214-2.0068,13.4516L893.9843,390.8708
				c-3.9961,6.539-11.7852,9.7187-19.2168,7.7798l-80.5723-20.7969v513.8481C794.1952,901.3268,786.4062,909.1139,776.7821,909.1139
				L776.7821,909.1139z M250.6474,874.2878h508.7207V355.3722c0-5.3823,2.4834-10.4668,6.7509-13.7666
				c4.2696-3.2988,9.8125-4.4467,15.0166-3.0952l89.8575,23.1963l97.3398-159.2485L684.7313,41.985
				c-30.2871,55.855-100.9619,93.4117-179.7324,93.4117c-78.7783,0-149.4697-37.5567-179.7656-93.42L41.6659,202.4582
				l97.3486,159.2485l89.8653-23.1963c5.1953-1.3603,10.7558-0.2036,15.0156,3.0952c4.2608,3.2998,6.752,8.3843,6.752,13.7666
				V874.2878L250.6474,874.2878z"/>
		</g>
		<g>
			<path fill="#5C524C" d="M504.9989,205.6974c-115.2129,0-207.1875-70.1904-235.2295-136.2226
				c-3.7578-8.8599,0.3662-19.0801,9.2178-22.8384c8.8672-3.7583,19.0801,0.3735,22.8379,9.2256
				c24.0117,56.5347,106.5654,115.0083,203.1738,115.0083c96.5918,0,179.1543-58.4819,203.1836-115.0171
				c3.7403-8.8511,13.9951-12.9751,22.8203-9.2168c8.8604,3.7583,12.9932,13.9868,9.2168,22.8384
				C712.161,135.5153,620.1942,205.6974,504.9989,205.6974L504.9989,205.6974z"/>
		</g>
		<g>
			<g>
				<path fill="#5C524C" d="M504.9989,604.0007c-3.7578,0-7.5244-1.2227-10.6621-3.6387L362.5604,498.3288
					c-1.0966-0.8496-2.0751-1.8028-2.916-2.8555c-18.5791-18.334-28.7822-42.4302-28.7822-68.168
					c0-52.8193,42.9639-95.7924,95.7754-95.7924c32.3525,0,61.0078,16.1298,78.3535,40.7627
					c17.3457-24.6329,45.9912-40.7627,78.3184-40.7627c52.8359,0,95.8271,42.9731,95.8271,95.7924
					c0,25.7041-10.1015,49.6817-28.5361,67.8438c-0.8838,1.1719-1.9551,2.2617-3.1631,3.1797L515.662,600.362
					C512.5243,602.778,508.7577,604.0007,504.9989,604.0007L504.9989,604.0007z M385.6542,472.1745l119.3447,92.3906
					l119.0049-92.1191c0.2393-0.2539,0.4766-0.502,0.749-0.7481c12.6172-11.7246,19.5557-27.4887,19.5557-44.3926
					c0-33.6201-27.3613-60.9648-60.999-60.9648c-33.585,0-60.8965,27.3447-60.8965,60.9648c0,9.6167-7.7979,17.4136-17.4141,17.4136
					c-9.6162,0-17.414-7.7969-17.414-17.4136c0-33.6201-27.3448-60.9648-60.9473-60.9648
					c-33.6035,0-60.9482,27.3447-60.9482,60.9648c0,16.8609,6.9804,32.6836,19.6503,44.5625
					C385.4413,471.9714,385.5517,472.0729,385.6542,472.1745L385.6542,472.1745z"/>
			</g>
		</g>
	</g>
</g>
</svg>
