<?xml version="1.0" encoding="utf-8"?>
<!-- Generator: Adobe Illustrator 17.1.0, SVG Export Plug-In . SVG Version: 6.00 Build 0)  -->
<!DOCTYPE svg PUBLIC "-//W3C//DTD SVG 1.1//EN" "http://www.w3.org/Graphics/SVG/1.1/DTD/svg11.dtd">
<svg version="1.1" id="tablet-shop" xmlns="http://www.w3.org/2000/svg" xmlns:xlink="http://www.w3.org/1999/xlink" x="0px"
	 y="0px" viewBox="0 0 940.7801 1010" enable-background="new 0 0 940.7801 1010" xml:space="preserve">
<g>
	<g id="tablet-shop-tablet-shop">
		<g>
			<path fill="#5C524C" d="M722.9311,1010H52.3608C23.4887,1010,0,986.5127,0,957.6582V52.3604C0,23.4878,23.4887,0,52.3608,0
				h670.5703c28.8897,0,52.377,23.4878,52.377,52.3604v538.3193c0,10.4023-8.416,18.8193-18.8174,18.8193
				c-10.3848,0-18.8203-8.4171-18.8203-18.8193V52.3604c0-8.1143-6.6162-14.7212-14.7393-14.7212H52.3608
				c-8.1055,0-14.7217,6.6069-14.7217,14.7212v905.2978c0,8.1055,6.6162,14.7031,14.7217,14.7031h670.5703
				c10.4024,0,18.8203,8.417,18.8203,18.8194C741.7514,1001.582,733.3335,1010,722.9311,1010L722.9311,1010z"/>
		</g>
		<g>
			<path fill="#5C524C" d="M536.3169,808.8486H18.8203C8.437,808.8486,0,800.4131,0,790.0303
				C0,779.6465,8.437,771.21,18.8203,771.21h517.4966c10.4023,0,18.8203,8.4365,18.8203,18.8203
				C555.1372,800.4131,546.7192,808.8486,536.3169,808.8486L536.3169,808.8486z"/>
		</g>
		<g>
			<path fill="#5C524C" d="M756.4907,171.7642H18.8203C8.437,171.7642,0,163.3374,0,152.9448
				c0-10.393,8.437-18.8198,18.8203-18.8198h737.6703c10.4014,0,18.8174,8.4268,18.8174,18.8198
				C775.3081,163.3374,766.8921,171.7642,756.4907,171.7642L756.4907,171.7642z"/>
		</g>
		<g>
			<path fill="#5C524C" d="M421.1958,104.6831h-67.0816c-10.3838,0-18.8188-8.4263-18.8188-18.8193
				c0-10.3931,8.435-18.8194,18.8188-18.8194h67.0816c10.4023,0,18.8188,8.4263,18.8188,18.8194
				C440.0146,96.2568,431.5981,104.6831,421.1958,104.6831L421.1958,104.6831z"/>
		</g>
		<g>
			<path fill="#5C524C" d="M421.1958,890.5957c0,18.5439-15.0342,33.541-33.5411,33.541c-18.5253,0-33.5405-14.9971-33.5405-33.541
				c0-18.5254,15.0152-33.54,33.5405-33.54C406.1616,857.0557,421.1958,872.0703,421.1958,890.5957z"/>
		</g>
		<g>
			<g>
				<path fill="#5C524C" d="M641.809,435.6406c-26.0244,0-49.291-14.0229-63.2031-35.4887
					c-13.8945,21.4658-37.1426,35.4887-63.167,35.4887c-26.0224,0-49.29-14.0322-63.2031-35.5078
					c-13.8936,21.4756-37.1611,35.5078-63.1665,35.5078c-26.042,0-49.3081-14.0136-63.2021-35.4795
					c-13.9126,21.4659-37.1797,35.4795-63.2032,35.4795c-26.042,0-49.3091-14.0136-63.1855-35.4795
					c-13.9116,21.4659-37.1978,35.4795-63.2207,35.4795c-40.9839,0-76.5459-34.0742-79.2842-75.9677l-0.0366-16.4942
					c0-10.3931,8.4355-18.8193,18.8188-18.8193h623.7974c10.4033,0,18.8193,8.4262,18.8193,18.8193
					c0,2.7197-0.5693,5.3023-1.6172,7.6367c1.2129,2.7012,1.7832,5.7246,1.5801,8.8858
					C715.5053,402.2832,681.8911,435.6406,641.809,435.6406L641.809,435.6406z M603.4165,361.998
					c3.3642,20.5376,19.4619,36.0035,38.3925,36.0035c18.8916,0,35.0108-15.4659,38.4102-36.0035H603.4165L603.4165,361.998z
					 M477.0464,361.998c3.3642,20.5376,19.4814,36.0035,38.3925,36.0035c18.9121,0,35.0108-15.4659,38.3555-36.0035H477.0464
					L477.0464,361.998z M350.6591,361.998c3.3448,20.5376,19.4624,36.0035,38.4102,36.0035
					c18.8936,0,34.9932-15.4659,38.356-36.0035H350.6591L350.6591,361.998z M224.2895,361.998
					c3.3271,20.5376,19.4444,36.0035,38.3745,36.0035c18.9292,0,35.0288-15.4659,38.3926-36.0035H224.2895L224.2895,361.998z
					 M94.9985,361.998c3.1792,19.3985,21.3003,36.0035,41.2593,36.0035c18.9302,0,35.0473-15.4659,38.4292-36.0035H94.9985
					L94.9985,361.998z"/>
			</g>
			<g>
				<polygon fill="#5C524C" points="215.6342,357.8267 177.9951,357.8267 177.9951,152.9448 215.6342,152.9448 215.6342,357.8267 
									"/>
			</g>
			<g>
				<polygon fill="#5C524C" points="342.9951,357.8267 305.3569,357.8267 305.3569,152.9448 342.9951,152.9448 342.9951,357.8267 
									"/>
			</g>
			<g>
				<polygon fill="#5C524C" points="597.7016,357.8267 560.062,357.8267 560.062,152.9448 597.7016,152.9448 597.7016,357.8267 				
					"/>
			</g>
			<g>
				<polygon fill="#5C524C" points="718.3725,357.8267 680.7348,357.8267 680.7348,152.9448 718.3725,152.9448 718.3725,357.8267 
									"/>
			</g>
			<g>
				<polygon fill="#5C524C" points="469.7133,357.8267 432.0756,357.8267 432.0756,152.9448 469.7133,152.9448 469.7133,357.8267 
									"/>
			</g>
			<g>
				<polygon fill="#5C524C" points="94.5937,343.1787 56.9546,343.1787 56.9546,152.9448 94.5937,152.9448 94.5937,343.1787 				"/>
			</g>
		</g>
		<g>
			<path fill="#5C524C" d="M765.936,1008.8975c-52.0107,0-119.4775-24.9219-179.0049-46.9385
				c-33.1914-12.2764-64.5449-23.8555-84.375-27.4199c-32.5478-5.8633-51.4038-26.1348-51.6982-55.6143
				c-0.1831-15.8779,5.9731-31.3154,16.9077-42.3799c10.5864-10.7138,24.6831-16.6133,39.6792-16.6133l40.874,1.3965
				L398.645,671.6543c-10.9346-10.9346-17.312-25.0674-17.9746-39.8438c-0.6797-15.5849,5.0542-30.288,16.1924-41.4248
				c21.6855-21.7226,58.479-21.0439,80.8271,1.3418l77.8506,77.8321c2.6475-5.5312,6.2861-10.7139,10.8994-15.3271
				c15.3086-15.3271,38.7588-20.0322,58.7178-12.7549c2.7207-7.7548,7.2236-14.8857,13.3066-20.9687
				c15.5293-15.5303,39.3653-20.0879,59.5088-12.4434c2.665-7.5352,7.0576-14.6104,13.1406-20.6933
				c21.6494-21.6505,58.7744-20.6944,81.2686,1.8008l105.2169,105.2519c68.0547,68.0186,41.0742,165.1299,17.3115,206.959
				c-0.8457,1.4707-1.874,2.8125-3.0693,4.0068l-81.1026,81.1396C815.8891,1001.3809,794.0737,1008.8975,765.936,1008.8975
				L765.936,1008.8975z M507.188,857.5693c-5.9727,0-10.2002,2.9414-12.6446,5.4406c-3.915,3.9326-6.1201,9.5937-6.0469,15.4931
				c0.0557,5.3661,0.1661,15.291,20.7305,18.9844c23.084,4.1543,54.4561,15.751,90.7539,29.1856
				c53.7735,19.8486,120.6895,44.5859,165.9551,44.5859c17.791,0,30.6377-3.8233,38.1729-11.3408l79.1738-79.1914
				c7.6455-14.6651,47.8564-99.5557-12.2959-159.6895L765.7514,615.7842c-4.4472-4.4473-10.1621-7.002-15.6933-7.002
				c-3.2539,0-8.0323,0.9004-12.3506,5.2198c-7.7012,7.7011-7.1309,19.0576,1.3779,27.622v0.0196
				c0.0186,0.0175,0.0186,0.0175,0.0371,0.0175c7.334,7.3516,7.3145,19.2607-0.0371,26.6122
				c-7.3515,7.3135-19.2607,7.333-26.6123-0.0195l-19.3525-19.3525c-4.4473-4.4464-10.1621-7.002-15.6944-7.002
				c-3.2539,0-8.0322,0.9014-12.3496,5.2197c-3.6767,3.6944-5.5508,8.2334-5.3857,13.1407
				c0.1846,5.165,2.5742,10.3105,6.7451,14.4834h0.0186c7.333,7.3505,7.333,19.2597-0.0186,26.6113
				c-7.3516,7.3516-19.2607,7.3516-26.6113,0c-0.0371-0.0371-0.0742-0.0742-0.1104-0.1104l-18.6357-18.6728
				c-4.4297-4.4102-10.127-6.9463-15.6582-6.9463c-3.2539,0-8.0498,0.9004-12.3682,5.2187
				c-7.7012,7.7188-7.168,19.0401,1.3223,27.5489c0.0185,0.0185,0.0361,0,0.0361,0.0381c0.0195,0.0175,0.0371,0.0175,0.0557,0.0536
				c0,0,0.0195,0.0195,0.0371,0.0381l0.0361,0.0351c0.0195,0,0.0195,0.0195,0.0371,0.0381c0,0,0.0186,0.0352,0.0362,0.0352
				c0,0,0.0195,0.0195,0.0371,0.038c0,0,0.0185,0.0372,0.0371,0.0372c0.0185,0.0175,0.0371,0.0361,0.0371,0.0361
				c0.0176,0.0371,0.0361,0.0371,0.0547,0.0547c0.0185,0.0186,0.0371,0.0186,0.0371,0.0556c0,0,0.0185,0.0176,0.0361,0.0362
				c0.0186,0,0.0186,0.0195,0.0371,0.0371l0,0c0,0,0.0362,0,0.0362,0.0371c0.0195,0.0185,0.038,0.0371,0.038,0.0371
				c0.0176,0,0.0352,0.0361,0.0352,0.0361c0.0195,0.0186,0.0195,0.0186,0.0195,0.0186c0,0.0185,0.0186,0.0547,0.0362,0.0547
				c0.0195,0,0.0195,0.0186,0.0371,0.0371l0,0c0.0185,0,0.0185,0.0371,0.0361,0.0371c0,0,0.0195,0.0371,0.0371,0.0371l0,0
				c0.0186,0.0361,0.0381,0.0361,0.0381,0.0537l0,0c0.0176,0.0195,0.0352,0.0195,0.0537,0.0557l0,0c0,0,0.0195,0.0176,0.0371,0.0371
				l0,0c6.3955,7.3515,6.1387,18.5254-0.79,25.5635c-0.0176,0-0.0371,0.0195-0.0371,0.037c0,0.0186-0.0362,0.0186-0.0362,0.0371
				c-0.0195,0.0185-0.0195,0.0185-0.0195,0.0185l0,0l0,0c-0.0176,0-0.0361,0.0186-0.0537,0.0371
				c0,0.0362-0.0195,0.0362-0.0371,0.0547c-0.0186,0-0.0186,0.0186-0.0381,0.0547c-0.0176,0.0196-0.0352,0-0.0537,0.037l0,0
				c-0.0195,0-0.037,0.0363-0.037,0.0363l0,0c-3.6572,3.5293-8.3809,5.3115-13.1035,5.3115l0,0c-0.0557,0-0.1846,0-0.166,0
				c-0.0362,0-0.0547,0-0.0733,0c-4.4297-0.0547-8.8398-1.6719-12.3506-4.8516l0,0c-0.0361-0.0186-0.0732-0.0556-0.0556-0.0556
				c-0.0176,0-0.0733-0.0538-0.0362-0.0362c-0.0176,0-0.0371-0.0176-0.0371-0.0371h-0.0176c0,0-0.0185-0.0361-0.038-0.0361
				c-0.0176-0.0176-0.0176-0.0371-0.0538-0.0371c0-0.0186-0.0195-0.0362-0.0195-0.0362s-0.0176,0-0.0361-0.0371
				c-0.0371-0.0185-0.0371-0.0361-0.0547-0.0361c0-0.0195-0.0186-0.0195-0.037-0.0371c0-0.0381-0.0186-0.0381-0.0371-0.0381
				c-0.0176-0.0352-0.0362-0.0176-0.0547-0.0537c0-0.0195-0.0186-0.0195-0.0186-0.0195l-0.0185-0.0176
				c-0.0186-0.0186-0.0186-0.0186-0.0362-0.0557c-0.0195,0-0.0371-0.0176-0.0556-0.0361c0,0-0.0176-0.0186-0.0176-0.0371
				c-0.0195,0-0.0381,0-0.0381-0.0186L451.0781,618.3389c-8.1602-8.1592-20.0137-8.9493-27.5855-1.3409
				c-4.5952,4.5762-5.3662,9.667-5.2197,13.1582c0.2388,5.3311,2.7202,10.6221,6.9844,14.8877l183.415,183.4327
				c5.4776,5.4589,7.0391,13.7285,3.9522,20.8047c-3.0694,7.0761-10.0156,11.5244-17.9004,11.3027L507.188,857.5693
				L507.188,857.5693z"/>
		</g>
	</g>
</g>
</svg>
