<?xml version="1.0" encoding="utf-8"?>
<!-- Generator: Adobe Illustrator 17.1.0, SVG Export Plug-In . SVG Version: 6.00 Build 0)  -->
<!DOCTYPE svg PUBLIC "-//W3C//DTD SVG 1.1//EN" "http://www.w3.org/Graphics/SVG/1.1/DTD/svg11.dtd">
<svg version="1.1" id="wallet" xmlns="http://www.w3.org/2000/svg" xmlns:xlink="http://www.w3.org/1999/xlink" x="0px" y="0px"
	 viewBox="0 0 1010 746.2988" enable-background="new 0 0 1010 746.2988" xml:space="preserve">
<g>
	<g id="wallet-wallet">
		<g>
			<path fill="#5C524C" d="M953.1094,746.2988H18.0352C8.0752,746.2988,0,738.2314,0,728.2627V18.0366C0,8.0674,8.0752,0,18.0352,0
				h935.0742c9.9687,0,18.0361,8.0674,18.0361,18.0366v222.0288c0,9.9693-8.0674,18.0352-18.0361,18.0352
				c-9.9688,0-18.0362-8.0659-18.0362-18.0352V36.0718H36.0718v674.1557h899.0014V506.1982c0-9.9697,8.0674-18.0361,18.0362-18.0361
				c9.9687,0,18.0361,8.0664,18.0361,18.0361v222.0645C971.1455,738.2314,963.0781,746.2988,953.1094,746.2988L953.1094,746.2988z"
				/>
		</g>
		<g>
			<polygon fill="#5C524C" points="909.0068,676.2334 66.665,676.2334 66.665,70.0644 909.0068,70.0644 909.0068,240.0654 
				872.9336,240.0654 872.9336,106.1357 102.7363,106.1357 102.7363,640.1631 872.9336,640.1631 872.9336,515.6738 
				909.0068,515.6738 909.0068,676.2334 			"/>
		</g>
		<g>
			<path fill="#5C524C" d="M1010,526.9111H692.1553c-84.7539,0-153.7256-68.9726-153.7256-153.7617
				c0-84.8066,68.9717-153.7964,153.7256-153.7964H1010V526.9111L1010,526.9111z M692.1553,255.4243
				c-64.8858,0-117.6553,52.8037-117.6553,117.7251c0,64.8867,52.7695,117.6895,117.6553,117.6895h281.7724V255.4243H692.1553
				L692.1553,255.4243z"/>
		</g>
		<g>
			<path fill="#5C524C" d="M705.3828,436.415c-34.8916,0-63.2842-28.374-63.2842-63.2656c0-34.9087,28.3926-63.3008,63.2842-63.3008
				s63.2666,28.3921,63.2666,63.3008C768.6494,408.041,740.2744,436.415,705.3828,436.415L705.3828,436.415z M705.3828,345.9189
				c-15.0068,0-27.213,12.2242-27.213,27.2305c0,14.9883,12.2061,27.1953,27.213,27.1953c14.9883,0,27.1934-12.207,27.1934-27.1953
				C732.5762,358.1431,720.3711,345.9189,705.3828,345.9189L705.3828,345.9189z"/>
		</g>
	</g>
</g>
</svg>
