<?xml version="1.0" encoding="utf-8"?>
<!-- Generator: Adobe Illustrator 17.1.0, SVG Export Plug-In . SVG Version: 6.00 Build 0)  -->
<!DOCTYPE svg PUBLIC "-//W3C//DTD SVG 1.1//EN" "http://www.w3.org/Graphics/SVG/1.1/DTD/svg11.dtd">
<svg version="1.1" id="wish-list" xmlns="http://www.w3.org/2000/svg" xmlns:xlink="http://www.w3.org/1999/xlink" x="0px" y="0px"
	 viewBox="0 0 756.1016 1010" enable-background="new 0 0 756.1016 1010" xml:space="preserve">
<g>
	<g id="wish-list-wish-list">
		<g>
			<g>
				<path fill="#5C524C" d="M737.7383,1010H18.3643C8.2232,1010,0,1001.7871,0,991.6367V243.1924
					c0-4.7881,1.8745-9.3877,5.2193-12.8223L224.417,5.5415C227.8692,1.9995,232.6123,0,237.5625,0h500.1758
					c10.1318,0,18.3633,8.2227,18.3633,18.3638v973.2729C756.1016,1001.7871,747.8701,1010,737.7383,1010L737.7383,1010z
					 M36.7276,973.2725H719.375V36.7271H245.3096l-208.582,213.935V973.2725L36.7276,973.2725z"/>
			</g>
			<g>
				<path fill="#5C524C" d="M251.1021,290.6265H39.5254c-10.1416,0-18.3633-8.2227-18.3633-18.3638
					c0-10.1421,8.2217-18.3638,18.3633-18.3638h193.2129V39.5244c0-10.1411,8.2227-18.3633,18.3638-18.3633
					s18.3637,8.2222,18.3637,18.3633v232.7383C269.4658,282.4038,261.2432,290.6265,251.1021,290.6265L251.1021,290.6265z"/>
			</g>
		</g>
		<g>
			<path fill="#5C524C" d="M491.5684,693.8906c-3.8369,0-7.6748-1.2011-10.9024-3.6046l-102.7314-75.8574L275.294,688.4219
				c-6.4825,4.6797-15.2251,4.627-21.6548-0.1084c-6.4204-4.7344-9.0376-13.0908-6.4824-20.6592l38.9062-115.0957l-101.9868-69.4639
				c-6.6616-4.5371-9.585-12.8857-7.209-20.5874c2.3765-7.7021,9.4873-12.957,17.5474-12.957h126.9497l39.2378-120.7534
				c2.4565-7.5679,9.5141-12.6875,17.4673-12.6875l0,0c7.9531,0,15.0107,5.1196,17.4677,12.6875l39.2188,120.7534h126.9326
				c8.0693,0,15.1885,5.2637,17.5557,12.9746c2.3671,7.7026-0.5733,16.0596-7.2452,20.5874l-102.0039,69.1953L509,669.7354
				c2.5108,7.6035-0.1797,15.9599-6.6357,20.6582C499.1377,692.7256,495.3526,693.8906,491.5684,693.8906L491.5684,693.8906z
				 M378.0694,573.3437c3.8369,0,7.6669,1.2012,10.9121,3.6036l66.8994,49.3896l-25.124-75.625
				c-2.5821-7.8017,0.3232-16.373,7.1201-21l64.039-43.4341h-80.5019c-7.9629,0-15.0098-5.1201-17.4668-12.6884l-25.8779-79.6861
				l-25.8956,79.6861c-2.4565,7.5683-9.5141,12.6884-17.4672,12.6884h-80.7178l64.2729,43.7935
				c6.815,4.626,9.6934,13.2334,7.0567,21.0527l-25.0171,73.9932l67.0259-48.3125
				C370.5376,574.5088,374.3032,573.3437,378.0694,573.3437L378.0694,573.3437z"/>
		</g>
	</g>
</g>
</svg>
